Heebo-Black.ufo
<glyph name="quotedbl" format="2">
  <advance width="658.975"/>
  <unicode hex="0022"/>
  <outline>
    <contour>
      <point x="259" y="1398" type="line"/>
      <point x="259" y="1537" type="line"/>
      <point x="15" y="1537" type="line"/>
      <point x="15" y="1383" type="line"/>
      <point x="15" y="947" type="line"/>
      <point x="213" y="947" type="line"/>
    </contour>
    <contour>
      <point x="622" y="1398" type="line"/>
      <point x="622" y="1537" type="line"/>
      <point x="379" y="1537" type="line"/>
      <point x="379" y="1392" type="line"/>
      <point x="380" y="947" type="line"/>
      <point x="576" y="947" type="line"/>
    </contour>
  </outline>
</glyph>
<glyph name="percent" format="2">
  <advance width="1520.475"/>
  <unicode hex="0025"/>
  <outline>
    <contour>
      <point x="89" y="1176" type="curve" smooth="yes"/>
      <point x="89" y="1099" type="line"/>
      <point x="89" y="936"/>
      <point x="198" y="800"/>
      <point x="418" y="800" type="curve" smooth="yes"/>
      <point x="640" y="800"/>
      <point x="745" y="936"/>
      <point x="745" y="1099" type="curve" smooth="yes"/>
      <point x="745" y="1176" type="line" smooth="yes"/>
      <point x="745" y="1341"/>
      <point x="640" y="1477"/>
      <point x="416" y="1477" type="curve" smooth="yes"/>
      <point x="198" y="1477"/>
      <point x="89" y="1341"/>
    </contour>
    <contour>
      <point x="318" y="1099" type="curve" smooth="yes"/>
      <point x="318" y="1176" type="line"/>
      <point x="318" y="1230"/>
      <point x="351" y="1277"/>
      <point x="416" y="1277" type="curve" smooth="yes"/>
      <point x="484" y="1277"/>
      <point x="515" y="1230"/>
      <point x="515" y="1176" type="curve" smooth="yes"/>
      <point x="515" y="1099" type="line" smooth="yes"/>
      <point x="515" y="1047"/>
      <point x="485" y="1000"/>
      <point x="418" y="1000" type="curve" smooth="yes"/>
      <point x="351" y="1000"/>
      <point x="318" y="1047"/>
    </contour>
    <contour>
      <point x="775" y="357" type="curve" smooth="yes"/>
      <point x="775" y="280" type="line"/>
      <point x="775" y="116"/>
      <point x="886" y="-20"/>
      <point x="1106" y="-20" type="curve" smooth="yes"/>
      <point x="1328" y="-20"/>
      <point x="1433" y="116"/>
      <point x="1433" y="280" type="curve" smooth="yes"/>
      <point x="1433" y="357" type="line" smooth="yes"/>
      <point x="1433" y="521"/>
      <point x="1328" y="657"/>
      <point x="1104" y="657" type="curve" smooth="yes"/>
      <point x="886" y="657"/>
      <point x="775" y="521"/>
    </contour>
    <contour>
      <point x="1005" y="280" type="curve" smooth="yes"/>
      <point x="1005" y="357" type="line"/>
      <point x="1005" y="409"/>
      <point x="1037" y="457"/>
      <point x="1104" y="457" type="curve" smooth="yes"/>
      <point x="1171" y="457"/>
      <point x="1203" y="409"/>
      <point x="1203" y="357" type="curve" smooth="yes"/>
      <point x="1203" y="280" type="line" smooth="yes"/>
      <point x="1203" y="227"/>
      <point x="1194" y="180"/>
      <point x="1106" y="180" type="curve" smooth="yes"/>
      <point x="1052" y="180"/>
      <point x="1005" y="227"/>
    </contour>
    <contour>
      <point x="485" y="107" type="line"/>
      <point x="1196" y="1245" type="line"/>
      <point x="1030" y="1329" type="line"/>
      <point x="319" y="191" type="line"/>
    </contour>
  </outline>
</glyph>
<glyph name="quotesingle" format="2">
  <advance width="313.725"/>
  <unicode hex="0027"/>
  <outline>
    <contour>
      <point x="290" y="1366" type="line"/>
      <point x="290" y="1536" type="line"/>
      <point x="35" y="1536" type="line"/>
      <point x="35" y="1353" type="line"/>
      <point x="36" y="935" type="line"/>
      <point x="255" y="935" type="line"/>
    </contour>
  </outline>
</glyph>
<glyph name="asterisk" format="2">
  <advance width="960.675"/>
  <unicode hex="002A"/>
  <outline>
    <contour>
      <point x="350" y="948" type="line"/>
      <point x="122" y="680" type="line"/>
      <point x="305" y="558" type="line"/>
      <point x="485" y="840" type="line"/>
      <point x="665" y="547" type="line"/>
      <point x="847" y="674" type="line"/>
      <point x="630" y="935" type="line"/>
      <point x="958" y="1022" type="line"/>
      <point x="890" y="1227" type="line"/>
      <point x="583" y="1098" type="line"/>
      <point x="610" y="1456" type="line"/>
      <point x="384" y="1456" type="line"/>
      <point x="411" y="1105" type="line"/>
      <point x="95" y="1239" type="line"/>
      <point x="27" y="1036" type="line"/>
    </contour>
  </outline>
</glyph>
<glyph name="plus" format="2">
  <advance width="1089.175"/>
  <unicode hex="002B"/>
  <outline>
    <contour>
      <point x="1041" y="519" type="line"/>
      <point x="1041" y="841" type="line"/>
      <point x="43" y="841" type="line"/>
      <point x="43" y="519" type="line"/>
    </contour>
    <contour>
      <point x="711" y="146" type="line"/>
      <point x="711" y="1206" type="line"/>
      <point x="376" y="1206" type="line"/>
      <point x="376" y="146" type="line"/>
    </contour>
  </outline>
</glyph>
<glyph name="comma" format="2">
  <advance width="567.125"/>
  <unicode hex="002C"/>
  <anchor x="423" y="274" name="_bottom"/>
  <anchor x="180" y="30" name="_right"/>
  <outline>
    <contour>
      <point x="435" y="36" type="curve"/>
      <point x="436" y="265" type="line"/>
      <point x="148" y="265" type="line"/>
      <point x="148" y="13" type="line"/>
      <point x="148" y="-155"/>
      <point x="80" y="-241"/>
      <point x="40" y="-333" type="curve"/>
      <point x="221" y="-417" type="line"/>
      <point x="340" y="-313"/>
      <point x="435" y="-135"/>
    </contour>
  </outline>
</glyph>
<glyph name="slash" format="2">
  <advance width="712.7"/>
  <unicode hex="002F"/>
  <outline>
    <contour>
      <point x="219" y="-125" type="line"/>
      <point x="707" y="1456" type="line"/>
      <point x="453" y="1456" type="line"/>
      <point x="-35" y="-125" type="line"/>
    </contour>
  </outline>
</glyph>
<glyph name="zero" format="2">
  <advance width="1192"/>
  <unicode hex="0030"/>
  <outline>
    <contour>
      <point x="1110" y="591" type="curve"/>
      <point x="1110" y="864" type="line"/>
      <point x="1110" y="1277"/>
      <point x="896" y="1476"/>
      <point x="596" y="1476" type="curve" smooth="yes"/>
      <point x="293" y="1476"/>
      <point x="83" y="1277"/>
      <point x="83" y="864" type="curve"/>
      <point x="83" y="591" type="line"/>
      <point x="83" y="177"/>
      <point x="295" y="-20"/>
      <point x="598" y="-20" type="curve" smooth="yes"/>
      <point x="898" y="-20"/>
      <point x="1110" y="177"/>
    </contour>
    <contour>
      <point x="749" y="911" type="curve"/>
      <point x="749" y="545" type="line"/>
      <point x="749" y="330"/>
      <point x="690" y="270"/>
      <point x="598" y="270" type="curve" smooth="yes"/>
      <point x="502" y="270"/>
      <point x="443" y="330"/>
      <point x="443" y="545" type="curve" smooth="yes"/>
      <point x="443" y="911" type="line" smooth="yes"/>
      <point x="443" y="1121"/>
      <point x="502" y="1185"/>
      <point x="596" y="1185" type="curve" smooth="yes"/>
      <point x="689" y="1185"/>
      <point x="749" y="1121"/>
    </contour>
  </outline>
</glyph>
<glyph name="two" format="2">
  <advance width="1192"/>
  <unicode hex="0032"/>
  <outline>
    <contour>
      <point x="1112" y="0" type="line"/>
      <point x="1112" y="290" type="line"/>
      <point x="558" y="290" type="line"/>
      <point x="725" y="457" type="line" smooth="yes"/>
      <point x="949" y="684"/>
      <point x="1079" y="838"/>
      <point x="1079" y="1048" type="curve" smooth="yes"/>
      <point x="1079" y="1320"/>
      <point x="910" y="1477"/>
      <point x="582" y="1477" type="curve" smooth="yes"/>
      <point x="268" y="1477"/>
      <point x="55" y="1252"/>
      <point x="55" y="978" type="curve"/>
      <point x="416" y="978" type="line"/>
      <point x="416" y="1095"/>
      <point x="477" y="1187"/>
      <point x="573" y="1187" type="curve" smooth="yes"/>
      <point x="666" y="1187"/>
      <point x="717" y="1132"/>
      <point x="717" y="1015" type="curve" smooth="yes"/>
      <point x="717" y="949"/>
      <point x="670" y="856"/>
      <point x="552" y="727" type="curve" smooth="yes"/>
      <point x="85" y="244" type="line"/>
      <point x="85" y="0" type="line"/>
    </contour>
  </outline>
</glyph>
<glyph name="three" format="2">
  <advance width="1192"/>
  <unicode hex="0033"/>
  <outline>
    <contour>
      <point x="564" y="883" type="curve" smooth="yes"/>
      <point x="396" y="883" type="line"/>
      <point x="396" y="694" type="line"/>
      <point x="625" y="694" type="line" smooth="yes"/>
      <point x="890" y="694"/>
      <point x="1092" y="851"/>
      <point x="1092" y="1059" type="curve" smooth="yes"/>
      <point x="1092" y="1333"/>
      <point x="876" y="1477"/>
      <point x="562" y="1477" type="curve" smooth="yes"/>
      <point x="299" y="1477"/>
      <point x="65" y="1333"/>
      <point x="65" y="1082" type="curve"/>
      <point x="425" y="1082" type="line"/>
      <point x="425" y="1148"/>
      <point x="503" y="1187"/>
      <point x="574" y="1187" type="curve" smooth="yes"/>
      <point x="682" y="1187"/>
      <point x="731" y="1118"/>
      <point x="731" y="1050" type="curve" smooth="yes"/>
      <point x="731" y="944"/>
      <point x="678" y="883"/>
    </contour>
    <contour>
      <point x="396" y="789" type="line"/>
      <point x="396" y="604" type="line"/>
      <point x="564" y="604" type="line" smooth="yes"/>
      <point x="684" y="604"/>
      <point x="754" y="556"/>
      <point x="754" y="420" type="curve" smooth="yes"/>
      <point x="754" y="343"/>
      <point x="688" y="270"/>
      <point x="573" y="270" type="curve" smooth="yes"/>
      <point x="483" y="270"/>
      <point x="405" y="333"/>
      <point x="405" y="408" type="curve"/>
      <point x="43" y="408" type="line"/>
      <point x="43" y="104"/>
      <point x="317" y="-20"/>
      <point x="561" y="-20" type="curve" smooth="yes"/>
      <point x="875" y="-20"/>
      <point x="1114" y="137"/>
      <point x="1114" y="411" type="curve" smooth="yes"/>
      <point x="1114" y="665"/>
      <point x="913" y="789"/>
      <point x="625" y="789" type="curve" smooth="yes"/>
    </contour>
  </outline>
</glyph>
<glyph name="seven" format="2">
  <advance width="1192"/>
  <unicode hex="0037"/>
  <outline>
    <contour>
      <point x="1109" y="1255" type="line"/>
      <point x="1109" y="1456" type="line"/>
      <point x="50" y="1456" type="line"/>
      <point x="50" y="1166" type="line"/>
      <point x="730" y="1166" type="line"/>
      <point x="193" y="0" type="line"/>
      <point x="574" y="0" type="line"/>
    </contour>
  </outline>
</glyph>
<glyph name="nine" format="2">
  <advance width="1192"/>
  <unicode hex="0039"/>
  <outline>
    <contour>
      <point x="322" y="279" type="curve" smooth="yes"/>
      <point x="303" y="279" type="line"/>
      <point x="303" y="-23" type="line"/>
      <point x="328" y="-23" type="line" smooth="yes"/>
      <point x="755" y="-23"/>
      <point x="1104" y="216"/>
      <point x="1104" y="758" type="curve" smooth="yes"/>
      <point x="1104" y="879" type="line" smooth="yes"/>
      <point x="1104" y="1275"/>
      <point x="869" y="1477"/>
      <point x="591" y="1477" type="curve" smooth="yes"/>
      <point x="292" y="1477"/>
      <point x="78" y="1240"/>
      <point x="78" y="954" type="curve" smooth="yes"/>
      <point x="78" y="647"/>
      <point x="243" y="461"/>
      <point x="508" y="461" type="curve" smooth="yes"/>
      <point x="701" y="461"/>
      <point x="867" y="631"/>
      <point x="867" y="786" type="curve"/>
      <point x="764" y="881" type="line"/>
      <point x="766" y="814"/>
      <point x="716" y="731"/>
      <point x="607" y="731" type="curve" smooth="yes"/>
      <point x="494" y="731"/>
      <point x="439" y="822"/>
      <point x="439" y="953" type="curve" smooth="yes"/>
      <point x="439" y="1061"/>
      <point x="492" y="1187"/>
      <point x="589" y="1187" type="curve" smooth="yes"/>
      <point x="684" y="1187"/>
      <point x="744" y="1115"/>
      <point x="744" y="951" type="curve"/>
      <point x="744" y="630" type="line"/>
      <point x="744" y="354"/>
      <point x="575" y="279"/>
    </contour>
  </outline>
</glyph>
<glyph name="equal" format="2">
  <advance width="1205.025"/>
  <unicode hex="003D"/>
  <outline>
    <contour>
      <point x="1061" y="699" type="line"/>
      <point x="1061" y="988" type="line"/>
      <point x="127" y="988" type="line"/>
      <point x="127" y="699" type="line"/>
    </contour>
    <contour>
      <point x="1061" y="255" type="line"/>
      <point x="1061" y="544" type="line"/>
      <point x="127" y="544" type="line"/>
      <point x="127" y="255" type="line"/>
    </contour>
  </outline>
</glyph>
<glyph name="B" format="2">
  <advance width="1328.7"/>
  <unicode hex="0042"/>
  <anchor x="594" y="10" name="bottom"/>
  <anchor x="1329" y="-407" name="bottom_dd"/>
  <anchor x="596" y="1612" name="top"/>
  <anchor x="1329" y="1612" name="top0315"/>
  <anchor x="1329" y="1600" name="top_dd"/>
  <outline>
    <contour>
      <point x="337" y="603" type="line"/>
      <point x="707" y="603" type="line"/>
      <point x="805" y="705" type="line"/>
      <point x="1120" y="703"/>
      <point x="1220" y="871"/>
      <point x="1220" y="1050" type="curve"/>
      <point x="1220" y="1323"/>
      <point x="1002" y="1456"/>
      <point x="637" y="1456" type="curve"/>
      <point x="103" y="1456" type="line"/>
      <point x="103" y="0" type="line"/>
      <point x="479" y="0" type="line"/>
      <point x="479" y="1153" type="line"/>
      <point x="637" y="1153" type="line"/>
      <point x="784" y="1153"/>
      <point x="845" y="1110"/>
      <point x="845" y="998" type="curve"/>
      <point x="845" y="903"/>
      <point x="790" y="856"/>
      <point x="634" y="856" type="curve"/>
      <point x="335" y="856" type="line"/>
    </contour>
    <contour>
      <point x="246" y="0" type="line"/>
      <point x="693" y="0" type="line"/>
      <point x="1060" y="0"/>
      <point x="1248" y="145"/>
      <point x="1248" y="435" type="curve" smooth="yes"/>
      <point x="1248" y="598"/>
      <point x="1152" y="773"/>
      <point x="851" y="753" type="curve"/>
      <point x="763" y="856" type="line"/>
      <point x="409" y="856" type="line"/>
      <point x="407" y="603" type="line"/>
      <point x="707" y="603" type="line" smooth="yes"/>
      <point x="829" y="603"/>
      <point x="874" y="542"/>
      <point x="874" y="441" type="curve" smooth="yes"/>
      <point x="874" y="368"/>
      <point x="827" y="302"/>
      <point x="693" y="302" type="curve" smooth="yes"/>
      <point x="374" y="302" type="line"/>
    </contour>
  </outline>
</glyph>
<glyph name="C" format="2">
  <advance width="1345.55"/>
  <unicode hex="0043"/>
  <anchor x="689" y="2" name="bottom"/>
  <anchor x="1346" y="-407" name="bottom_dd"/>
  <anchor x="694" y="1593" name="top"/>
  <anchor x="1346" y="1593" name="top0315"/>
  <anchor x="1346" y="1600" name="top_dd"/>
  <outline>
    <contour>
      <point x="1297" y="501" type="curve"/>
      <point x="923" y="501" type="line"/>
      <point x="920" y="351"/>
      <point x="838" y="288"/>
      <point x="688" y="288" type="curve" smooth="yes"/>
      <point x="505" y="288"/>
      <point x="445" y="388"/>
      <point x="445" y="698" type="curve" smooth="yes"/>
      <point x="445" y="759" type="line" smooth="yes"/>
      <point x="445" y="1067"/>
      <point x="519" y="1169"/>
      <point x="682" y="1169" type="curve" smooth="yes"/>
      <point x="862" y="1169"/>
      <point x="922" y="1095"/>
      <point x="925" y="943" type="curve"/>
      <point x="1299" y="943" type="line"/>
      <point x="1273" y="1247"/>
      <point x="1070" y="1477"/>
      <point x="682" y="1477" type="curve" smooth="yes"/>
      <point x="309" y="1477"/>
      <point x="64" y="1204"/>
      <point x="64" y="757" type="curve"/>
      <point x="64" y="698" type="line"/>
      <point x="64" y="251"/>
      <point x="293" y="-20"/>
      <point x="688" y="-20" type="curve" smooth="yes"/>
      <point x="1052" y="-20"/>
      <point x="1284" y="192"/>
    </contour>
  </outline>
</glyph>
<glyph name="E" format="2">
  <advance width="1144.25"/>
  <unicode hex="0045"/>
  <anchor x="651" y="10" name="bottom"/>
  <anchor x="1144" y="-407" name="bottom_dd"/>
  <anchor x="909" y="0" name="ogonek"/>
  <anchor x="-111" y="1457" name="tonos"/>
  <anchor x="646" y="1597" name="top"/>
  <anchor x="1144" y="1597" name="top0315"/>
  <anchor x="1144" y="1600" name="top_dd"/>
  <outline>
    <contour>
      <point x="1115" y="0" type="line"/>
      <point x="1115" y="302" type="line"/>
      <point x="346" y="302" type="line"/>
      <point x="346" y="0" type="line"/>
    </contour>
    <contour>
      <point x="479" y="0" type="line"/>
      <point x="479" y="1456" type="line"/>
      <point x="103" y="1456" type="line"/>
      <point x="103" y="0" type="line"/>
    </contour>
    <contour>
      <point x="1016" y="601" type="line"/>
      <point x="1016" y="892" type="line"/>
      <point x="346" y="892" type="line"/>
      <point x="346" y="601" type="line"/>
    </contour>
    <contour>
      <point x="1118" y="1153" type="line"/>
      <point x="1118" y="1456" type="line"/>
      <point x="346" y="1456" type="line"/>
      <point x="346" y="1153" type="line"/>
    </contour>
  </outline>
</glyph>
<glyph name="F" format="2">
  <advance width="1116.125"/>
  <unicode hex="0046"/>
  <anchor x="531" y="10" name="bottom"/>
  <anchor x="1116" y="-407" name="bottom_dd"/>
  <anchor x="329" y="281" name="cross"/>
  <anchor x="646" y="1612" name="top"/>
  <anchor x="1116" y="1612" name="top0315"/>
  <anchor x="1116" y="1600" name="top_dd"/>
  <outline>
    <contour>
      <point x="479" y="0" type="line"/>
      <point x="479" y="1456" type="line"/>
      <point x="103" y="1456" type="line"/>
      <point x="103" y="0" type="line"/>
    </contour>
    <contour>
      <point x="1030" y="561" type="line"/>
      <point x="1030" y="863" type="line"/>
      <point x="374" y="863" type="line"/>
      <point x="374" y="561" type="line"/>
    </contour>
    <contour>
      <point x="1084" y="1153" type="line"/>
      <point x="1084" y="1456" type="line"/>
      <point x="374" y="1456" type="line"/>
      <point x="374" y="1153" type="line"/>
    </contour>
  </outline>
</glyph>
<glyph name="H" format="2">
  <advance width="1439.15"/>
  <unicode hex="0048"/>
  <anchor x="732" y="10" name="bottom"/>
  <anchor x="1439" y="-407" name="bottom_dd"/>
  <anchor x="1333" y="0" name="right"/>
  <anchor x="-114" y="1450" name="tonos"/>
  <anchor x="729" y="1597" name="top"/>
  <anchor x="1439" y="1597" name="top0315"/>
  <anchor x="1439" y="1600" name="top_dd"/>
  <outline>
    <contour>
      <point x="1083" y="590" type="line"/>
      <point x="1083" y="892" type="line"/>
      <point x="354" y="892" type="line"/>
      <point x="354" y="590" type="line"/>
    </contour>
    <contour>
      <point x="479" y="0" type="line"/>
      <point x="479" y="1456" type="line"/>
      <point x="103" y="1456" type="line"/>
      <point x="103" y="0" type="line"/>
    </contour>
    <contour>
      <point x="1335" y="0" type="line"/>
      <point x="1335" y="1456" type="line"/>
      <point x="961" y="1456" type="line"/>
      <point x="961" y="0" type="line"/>
    </contour>
  </outline>
</glyph>
<glyph name="N" format="2">
  <advance width="1437.25"/>
  <unicode hex="004E"/>
  <anchor x="727" y="-2" name="bottom"/>
  <anchor x="1437" y="-407" name="bottom_dd"/>
  <anchor x="1331" y="0" name="right"/>
  <anchor x="726" y="1599" name="top"/>
  <anchor x="1437" y="1599" name="top0315"/>
  <anchor x="1437" y="1600" name="top_dd"/>
  <outline>
    <contour>
      <point x="1333" y="0" type="line"/>
      <point x="1333" y="1456" type="line"/>
      <point x="959" y="1456" type="line"/>
      <point x="959" y="614" type="line"/>
      <point x="478" y="1456" type="line"/>
      <point x="103" y="1456" type="line"/>
      <point x="103" y="0" type="line"/>
      <point x="478" y="0" type="line"/>
      <point x="478" y="842" type="line"/>
      <point x="959" y="0" type="line"/>
    </contour>
  </outline>
</glyph>
<glyph name="P" format="2">
  <advance width="1342.15"/>
  <unicode hex="0050"/>
  <anchor x="530" y="10" name="bottom"/>
  <anchor x="1342" y="-407" name="bottom_dd"/>
  <anchor x="-64" y="1454" name="tonos"/>
  <anchor x="596" y="1612" name="top"/>
  <anchor x="1342" y="1612" name="top0315"/>
  <anchor x="1342" y="1600" name="top_dd"/>
  <outline>
    <contour>
      <point x="339" y="474" type="line"/>
      <point x="694" y="474" type="line"/>
      <point x="1047" y="474"/>
      <point x="1267" y="666"/>
      <point x="1267" y="950" type="curve"/>
      <point x="1267" y="1241"/>
      <point x="1047" y="1456"/>
      <point x="694" y="1456" type="curve"/>
      <point x="103" y="1456" type="line"/>
      <point x="103" y="0" type="line"/>
      <point x="479" y="0" type="line"/>
      <point x="479" y="1153" type="line"/>
      <point x="694" y="1153" type="line"/>
      <point x="829" y="1153"/>
      <point x="886" y="1056"/>
      <point x="886" y="948" type="curve"/>
      <point x="886" y="848"/>
      <point x="829" y="777"/>
      <point x="694" y="777" type="curve"/>
      <point x="339" y="777" type="line"/>
    </contour>
  </outline>
</glyph>
<glyph name="R" format="2">
  <advance width="1337.125"/>
  <unicode hex="0052"/>
  <anchor x="614" y="10" name="bottom"/>
  <anchor x="1337" y="-407" name="bottom_dd"/>
  <anchor x="591" y="1599" name="top"/>
  <anchor x="1337" y="1599" name="top0315"/>
  <anchor x="1337" y="1600" name="top_dd"/>
  <outline>
    <contour>
      <point x="686" y="1456" type="curve" smooth="yes"/>
      <point x="104" y="1456" type="line"/>
      <point x="104" y="0" type="line"/>
      <point x="479" y="0" type="line"/>
      <point x="479" y="1153" type="line"/>
      <point x="686" y="1153" type="line" smooth="yes"/>
      <point x="806" y="1153"/>
      <point x="868" y="1087"/>
      <point x="868" y="975" type="curve" smooth="yes"/>
      <point x="868" y="859"/>
      <point x="806" y="798"/>
      <point x="682" y="798" type="curve" smooth="yes"/>
      <point x="337" y="798" type="line"/>
      <point x="339" y="495" type="line"/>
      <point x="814" y="495" type="line"/>
      <point x="937" y="570" type="line"/>
      <point x="1120" y="645"/>
      <point x="1243" y="754"/>
      <point x="1243" y="1014" type="curve" smooth="yes"/>
      <point x="1243" y="1303"/>
      <point x="1027" y="1456"/>
    </contour>
    <contour>
      <point x="573" y="641" type="line"/>
      <point x="889" y="0" type="line"/>
      <point x="1291" y="0" type="line"/>
      <point x="1291" y="16" type="line"/>
      <point x="971" y="644" type="line"/>
    </contour>
  </outline>
</glyph>
<glyph name="U" format="2">
  <advance width="1361.35"/>
  <unicode hex="0055"/>
  <anchor x="674" y="0" name="bottom"/>
  <anchor x="1361" y="-407" name="bottom_dd"/>
  <anchor x="1061" y="84" name="ogonek"/>
  <anchor x="838" y="0" name="right"/>
  <anchor x="673" y="1599" name="top"/>
  <anchor x="1361" y="1599" name="top0315"/>
  <anchor x="1361" y="1600" name="top_dd"/>
  <outline>
    <contour>
      <point x="1258" y="1456" type="line"/>
      <point x="883" y="1456" type="line"/>
      <point x="883" y="513" type="line" smooth="yes"/>
      <point x="883" y="347"/>
      <point x="816" y="282"/>
      <point x="681" y="282" type="curve" smooth="yes"/>
      <point x="546" y="282"/>
      <point x="476" y="347"/>
      <point x="476" y="513" type="curve" smooth="yes"/>
      <point x="476" y="1456" type="line"/>
      <point x="99" y="1456" type="line"/>
      <point x="99" y="513" type="line"/>
      <point x="99" y="169"/>
      <point x="334" y="-20"/>
      <point x="681" y="-20" type="curve" smooth="yes"/>
      <point x="1031" y="-20"/>
      <point x="1258" y="169"/>
      <point x="1258" y="513" type="curve"/>
    </contour>
  </outline>
</glyph>
<glyph name="W" format="2">
  <advance width="1774.325"/>
  <unicode hex="0057"/>
  <anchor x="884" y="10" name="bottom"/>
  <anchor x="1774" y="-407" name="bottom_dd"/>
  <anchor x="890" y="1599" name="top"/>
  <anchor x="1774" y="1599" name="top0315"/>
  <anchor x="1774" y="1600" name="top_dd"/>
  <outline>
    <contour>
      <point x="724" y="1456" type="line"/>
      <point x="438" y="69" type="line"/>
      <point x="508" y="0" type="line"/>
      <point x="710" y="0" type="line"/>
      <point x="1015" y="1397" type="line"/>
      <point x="905" y="1456" type="line"/>
    </contour>
    <contour>
      <point x="631" y="54" type="line"/>
      <point x="391" y="1456" type="line"/>
      <point x="18" y="1456" type="line"/>
      <point x="321" y="0" type="line"/>
      <point x="554" y="0" type="line"/>
    </contour>
    <contour>
      <point x="1379" y="1456" type="line"/>
      <point x="1140" y="62" type="line"/>
      <point x="1215" y="0" type="line"/>
      <point x="1448" y="0" type="line"/>
      <point x="1750" y="1456" type="line"/>
    </contour>
    <contour>
      <point x="1335" y="60" type="line"/>
      <point x="1041" y="1456" type="line"/>
      <point x="861" y="1456" type="line"/>
      <point x="747" y="1399" type="line"/>
      <point x="1059" y="0" type="line"/>
      <point x="1261" y="0" type="line"/>
    </contour>
  </outline>
</glyph>
<glyph name="X" format="2">
  <advance width="1314.475"/>
  <unicode hex="0058"/>
  <anchor x="655" y="21" name="bottom"/>
  <anchor x="1314" y="-407" name="bottom_dd"/>
  <anchor x="653" y="742" name="cross"/>
  <anchor x="1141" y="0" name="right"/>
  <anchor x="634" y="1612" name="top"/>
  <anchor x="1314" y="1612" name="top0315"/>
  <anchor x="1314" y="1600" name="top_dd"/>
  <outline>
    <contour>
      <point x="657" y="996" type="line"/>
      <point x="438" y="1456" type="line"/>
      <point x="10" y="1456" type="line"/>
      <point x="409" y="733" type="line"/>
      <point x="0" y="0" type="line"/>
      <point x="432" y="0" type="line"/>
      <point x="657" y="468" type="line"/>
      <point x="882" y="0" type="line"/>
      <point x="1314" y="0" type="line"/>
      <point x="905" y="733" type="line"/>
      <point x="1304" y="1456" type="line"/>
      <point x="876" y="1456" type="line"/>
    </contour>
  </outline>
</glyph>
<glyph name="Y" format="2">
  <advance width="1291.625"/>
  <unicode hex="0059"/>
  <anchor x="643" y="57" name="bottom"/>
  <anchor x="1292" y="-407" name="bottom_dd"/>
  <anchor x="651" y="607" name="cross"/>
  <anchor x="-73" y="1454" name="tonos"/>
  <anchor x="647" y="1600" name="top"/>
  <anchor x="1292" y="1600" name="top0315"/>
  <anchor x="1292" y="1600" name="top_dd"/>
  <outline>
    <contour>
      <point x="646" y="854" type="line"/>
      <point x="397" y="1456" type="line"/>
      <point x="-7" y="1456" type="line"/>
      <point x="456" y="518" type="line"/>
      <point x="456" y="0" type="line"/>
      <point x="837" y="0" type="line"/>
      <point x="837" y="518" type="line"/>
      <point x="1299" y="1456" type="line"/>
      <point x="895" y="1456" type="line"/>
    </contour>
  </outline>
</glyph>
<glyph name="bracketleft" format="2">
  <advance width="588.2"/>
  <unicode hex="005B"/>
  <outline>
    <contour>
      <point x="573" y="1442" type="line"/>
      <point x="573" y="1715" type="line"/>
      <point x="102" y="1715" type="line"/>
      <point x="102" y="-357" type="line"/>
      <point x="573" y="-357" type="line"/>
      <point x="573" y="-85" type="line"/>
      <point x="464" y="-85" type="line"/>
      <point x="464" y="1442" type="line"/>
    </contour>
  </outline>
</glyph>
<glyph name="backslash" format="2">
  <advance width="881.725"/>
  <unicode hex="005C"/>
  <outline>
    <contour>
      <point x="-27" y="1456" type="line"/>
      <point x="580" y="-125" type="line"/>
      <point x="957" y="-125" type="line"/>
      <point x="349" y="1456" type="line"/>
    </contour>
  </outline>
</glyph>
<glyph name="bracketright" format="2">
  <advance width="588.2"/>
  <unicode hex="005D"/>
  <outline>
    <contour>
      <point x="16" y="1715" type="line"/>
      <point x="16" y="1442" type="line"/>
      <point x="126" y="1442" type="line"/>
      <point x="126" y="-85" type="line"/>
      <point x="16" y="-85" type="line"/>
      <point x="16" y="-357" type="line"/>
      <point x="487" y="-357" type="line"/>
      <point x="487" y="1715" type="line"/>
    </contour>
  </outline>
</glyph>
<glyph name="underscore" format="2">
  <advance width="908.975"/>
  <unicode hex="005F"/>
  <anchor x="432" y="126" name="_bottom"/>
  <outline>
    <contour>
      <point x="907" y="-279" type="line"/>
      <point x="907" y="0" type="line"/>
      <point x="-1" y="0" type="line"/>
      <point x="-1" y="-279" type="line"/>
    </contour>
  </outline>
</glyph>
<glyph name="grave" format="2">
  <advance width="708.375"/>
  <unicode hex="0060"/>
  <anchor x="458" y="1290" name="_top"/>
  <anchor x="458" y="1683" name="mkmktop_acc"/>
  <outline>
    <contour>
      <point x="628" y="1216" type="line"/>
      <point x="427" y="1536" type="line"/>
      <point x="48" y="1536" type="line"/>
      <point x="337" y="1216" type="line"/>
    </contour>
  </outline>
</glyph>
<glyph name="b" format="2">
  <advance width="1155.4"/>
  <unicode hex="0062"/>
  <anchor x="700" y="-10" name="bottom"/>
  <anchor x="1155" y="-407" name="bottom_dd"/>
  <anchor x="689" y="1597" name="top"/>
  <anchor x="1155" y="1597" name="top0315"/>
  <anchor x="1155" y="1600" name="top_dd"/>
  <outline>
    <contour>
      <point x="452" y="1536" type="line"/>
      <point x="92" y="1536" type="line"/>
      <point x="92" y="0" type="line"/>
      <point x="414" y="0" type="line"/>
      <point x="452" y="279" type="line"/>
    </contour>
    <contour>
      <point x="1107" y="533" type="curve" smooth="yes"/>
      <point x="1107" y="554" type="line"/>
      <point x="1107" y="867"/>
      <point x="977" y="1102"/>
      <point x="684" y="1102" type="curve" smooth="yes"/>
      <point x="424" y="1102"/>
      <point x="324" y="842"/>
      <point x="281" y="537" type="curve"/>
      <point x="281" y="549" type="line"/>
      <point x="325" y="239"/>
      <point x="424" y="-20"/>
      <point x="686" y="-20" type="curve" smooth="yes"/>
      <point x="977" y="-20"/>
      <point x="1107" y="204"/>
    </contour>
    <contour>
      <point x="747" y="554" type="curve" smooth="yes"/>
      <point x="747" y="533" type="line"/>
      <point x="747" y="372"/>
      <point x="733" y="268"/>
      <point x="595" y="268" type="curve" smooth="yes"/>
      <point x="456" y="268"/>
      <point x="415" y="355"/>
      <point x="423" y="526" type="curve"/>
      <point x="423" y="560" type="line"/>
      <point x="416" y="728"/>
      <point x="459" y="812"/>
      <point x="593" y="812" type="curve" smooth="yes"/>
      <point x="726" y="812"/>
      <point x="747" y="693"/>
    </contour>
  </outline>
</glyph>
<glyph name="c" format="2">
  <advance width="1066.525"/>
  <unicode hex="0063"/>
  <anchor x="569" y="2" name="bottom"/>
  <anchor x="1067" y="-407" name="bottom_dd"/>
  <anchor x="536" y="1290" name="marktop"/>
  <anchor x="536" y="1290" name="top"/>
  <anchor x="1067" y="1290" name="top0315"/>
  <anchor x="1067" y="1600" name="top_dd"/>
  <outline>
    <contour>
      <point x="641" y="270"/>
      <point x="553" y="270" type="curve" smooth="yes"/>
      <point x="422" y="270"/>
      <point x="409" y="383"/>
      <point x="409" y="531" type="curve" smooth="yes"/>
      <point x="409" y="550" type="line" smooth="yes"/>
      <point x="409" y="694"/>
      <point x="423" y="812"/>
      <point x="550" y="812" type="curve"/>
      <point x="648" y="812"/>
      <point x="687" y="741"/>
      <point x="685" y="658" type="curve"/>
      <point x="1022" y="658" type="line"/>
      <point x="1025" y="943"/>
      <point x="834" y="1102"/>
      <point x="559" y="1102" type="curve" smooth="yes"/>
      <point x="219" y="1102"/>
      <point x="49" y="866"/>
      <point x="49" y="550" type="curve" smooth="yes"/>
      <point x="49" y="531" type="line" smooth="yes"/>
      <point x="49" y="215"/>
      <point x="219" y="-20"/>
      <point x="561" y="-20" type="curve"/>
      <point x="826" y="-20"/>
      <point x="1025" y="143"/>
      <point x="1022" y="397" type="curve"/>
      <point x="685" y="397" type="line"/>
      <point x="687" y="317"/>
    </contour>
  </outline>
</glyph>
<glyph name="d" format="2">
  <advance width="1154.5"/>
  <unicode hex="0064"/>
  <anchor x="572" y="0" name="bottom"/>
  <anchor x="1155" y="-407" name="bottom_dd"/>
  <anchor x="1183" y="1536" name="caron"/>
  <anchor x="823" y="1306" name="cross"/>
  <anchor x="464" y="1597" name="top"/>
  <anchor x="1155" y="1597" name="top0315"/>
  <anchor x="1155" y="1600" name="top_dd"/>
  <outline>
    <contour>
      <point x="702" y="1536" type="line"/>
      <point x="702" y="257" type="line"/>
      <point x="740" y="0" type="line"/>
      <point x="1064" y="0" type="line"/>
      <point x="1064" y="1536" type="line"/>
    </contour>
    <contour>
      <point x="47" y="549" type="curve" smooth="yes"/>
      <point x="47" y="528" type="line"/>
      <point x="47" y="214"/>
      <point x="191" y="-20"/>
      <point x="467" y="-20" type="curve" smooth="yes"/>
      <point x="714" y="-20"/>
      <point x="831" y="241"/>
      <point x="874" y="538" type="curve"/>
      <point x="874" y="526" type="line"/>
      <point x="832" y="845"/>
      <point x="715" y="1102"/>
      <point x="469" y="1102" type="curve" smooth="yes"/>
      <point x="191" y="1102"/>
      <point x="47" y="877"/>
    </contour>
    <contour>
      <point x="407" y="528" type="curve" smooth="yes"/>
      <point x="407" y="549" type="line"/>
      <point x="407" y="702"/>
      <point x="445" y="812"/>
      <point x="562" y="812" type="curve" smooth="yes"/>
      <point x="679" y="812"/>
      <point x="738" y="733"/>
      <point x="731" y="549" type="curve"/>
      <point x="731" y="515" type="line"/>
      <point x="740" y="361"/>
      <point x="681" y="270"/>
      <point x="560" y="270" type="curve" smooth="yes"/>
      <point x="440" y="270"/>
      <point x="407" y="382"/>
    </contour>
  </outline>
</glyph>
<glyph name="e" format="2">
  <advance width="1122.225"/>
  <unicode hex="0065"/>
  <anchor x="571" y="0" name="bottom"/>
  <anchor x="1122" y="-407" name="bottom_dd"/>
  <anchor x="886" y="35" name="ogonek"/>
  <anchor x="921" y="654" name="rhotichook"/>
  <anchor x="531" y="1291" name="top"/>
  <anchor x="1122" y="1291" name="top0315"/>
  <anchor x="1122" y="1600" name="top_dd"/>
  <outline>
    <contour>
      <point x="263" y="-20"/>
      <point x="624" y="-20" type="curve"/>
      <point x="834" y="-20"/>
      <point x="988" y="75"/>
      <point x="1055" y="168" type="curve"/>
      <point x="893" y="375" type="line"/>
      <point x="831" y="298"/>
      <point x="736" y="271"/>
      <point x="648" y="271" type="curve" smooth="yes"/>
      <point x="504" y="271"/>
      <point x="419" y="359"/>
      <point x="419" y="504" type="curve" smooth="yes"/>
      <point x="419" y="541" type="line" smooth="yes"/>
      <point x="419" y="680"/>
      <point x="443" y="812"/>
      <point x="583" y="812" type="curve"/>
      <point x="680" y="812"/>
      <point x="734" y="771"/>
      <point x="732" y="677" type="curve"/>
      <point x="732" y="648" type="line"/>
      <point x="194" y="648" type="line"/>
      <point x="194" y="417" type="line"/>
      <point x="1084" y="417" type="line"/>
      <point x="1084" y="568" type="line" smooth="yes"/>
      <point x="1084" y="900"/>
      <point x="899" y="1102"/>
      <point x="586" y="1102" type="curve" smooth="yes"/>
      <point x="231" y="1102"/>
      <point x="59" y="851"/>
      <point x="59" y="541" type="curve" smooth="yes"/>
      <point x="59" y="504" type="line" smooth="yes"/>
      <point x="59" y="226"/>
    </contour>
  </outline>
</glyph>
<glyph name="g" format="2">
  <advance width="1183.425"/>
  <unicode hex="0067"/>
  <anchor x="554" y="-447" name="bottom"/>
  <anchor x="1183" y="-407" name="bottom_dd"/>
  <anchor x="553" y="1290" name="top"/>
  <anchor x="1183" y="1290" name="top0315"/>
  <anchor x="1183" y="1600" name="top_dd"/>
  <outline>
    <contour>
      <point x="1092" y="1082" type="line"/>
      <point x="765" y="1082" type="line"/>
      <point x="730" y="822" type="line"/>
      <point x="730" y="51" type="line" smooth="yes"/>
      <point x="730" y="-75"/>
      <point x="656" y="-148"/>
      <point x="517" y="-148" type="curve" smooth="yes"/>
      <point x="407" y="-148"/>
      <point x="325" y="-98"/>
      <point x="274" y="-46" type="curve"/>
      <point x="124" y="-269" type="line"/>
      <point x="214" y="-369"/>
      <point x="385" y="-425"/>
      <point x="529" y="-425" type="curve" smooth="yes"/>
      <point x="865" y="-425"/>
      <point x="1092" y="-257"/>
      <point x="1092" y="47" type="curve" smooth="yes"/>
    </contour>
    <contour>
      <point x="50" y="549" type="curve" smooth="yes"/>
      <point x="50" y="528" type="line"/>
      <point x="50" y="214"/>
      <point x="220" y="-20"/>
      <point x="495" y="-20" type="curve" smooth="yes"/>
      <point x="757" y="-20"/>
      <point x="856" y="241"/>
      <point x="902" y="538" type="curve"/>
      <point x="902" y="526" type="line"/>
      <point x="857" y="845"/>
      <point x="797" y="1102"/>
      <point x="497" y="1102" type="curve" smooth="yes"/>
      <point x="220" y="1102"/>
      <point x="50" y="877"/>
    </contour>
    <contour>
      <point x="411" y="528" type="curve" smooth="yes"/>
      <point x="411" y="549" type="line"/>
      <point x="411" y="702"/>
      <point x="473" y="812"/>
      <point x="590" y="812" type="curve" smooth="yes"/>
      <point x="723" y="812"/>
      <point x="779" y="733"/>
      <point x="772" y="549" type="curve"/>
      <point x="772" y="515" type="line"/>
      <point x="781" y="361"/>
      <point x="726" y="270"/>
      <point x="588" y="270" type="curve" smooth="yes"/>
      <point x="468" y="270"/>
      <point x="411" y="382"/>
    </contour>
  </outline>
</glyph>
<glyph name="k" format="2">
  <advance width="1132.625"/>
  <unicode hex="006B"/>
  <anchor x="587" y="19" name="bottom"/>
  <anchor x="1133" y="-407" name="bottom_dd"/>
  <anchor x="261" y="1300" name="cross"/>
  <anchor x="721" y="1597" name="marktop"/>
  <anchor x="721" y="1597" name="top"/>
  <anchor x="1003" y="1597" name="top0315"/>
  <anchor x="1133" y="1600" name="top_dd"/>
  <outline>
    <contour>
      <point x="452" y="0" type="line"/>
      <point x="452" y="1537" type="line"/>
      <point x="91" y="1537" type="line"/>
      <point x="91" y="0" type="line"/>
    </contour>
    <contour>
      <point x="679" y="520" type="line"/>
      <point x="1144" y="1082" type="line"/>
      <point x="713" y="1082" type="line"/>
      <point x="478" y="781" type="line"/>
      <point x="269" y="500" type="line"/>
      <point x="428" y="272" type="line"/>
    </contour>
    <contour>
      <point x="486" y="482" type="line"/>
      <point x="756" y="0" type="line"/>
      <point x="1168" y="0" type="line"/>
      <point x="753" y="669" type="line"/>
    </contour>
  </outline>
</glyph>
<glyph name="l" format="2">
  <advance width="574.775"/>
  <unicode hex="006C"/>
  <anchor x="287" y="10" name="bottom"/>
  <anchor x="575" y="-407" name="bottom_dd"/>
  <anchor x="569" y="1536" name="caron"/>
  <anchor x="555" y="779" name="dot"/>
  <anchor x="721" y="1476" name="marktop"/>
  <anchor x="287" y="1674" name="top"/>
  <anchor x="575" y="1674" name="top0315"/>
  <anchor x="575" y="1600" name="top_dd"/>
  <outline>
    <contour>
      <point x="468" y="0" type="line"/>
      <point x="468" y="1536" type="line"/>
      <point x="107" y="1536" type="line"/>
      <point x="107" y="0" type="line"/>
    </contour>
  </outline>
</glyph>
<glyph name="m" format="2">
  <advance width="1758.225"/>
  <unicode hex="006D"/>
  <anchor x="906" y="10" name="bottom"/>
  <anchor x="1758" y="-407" name="bottom_dd"/>
  <anchor x="902" y="1290" name="marktop"/>
  <anchor x="902" y="1290" name="top"/>
  <anchor x="1758" y="1290" name="top0315"/>
  <anchor x="1758" y="1600" name="top_dd"/>
  <outline>
    <contour>
      <point x="453" y="0" type="line"/>
      <point x="453" y="851" type="line"/>
      <point x="430" y="1082" type="line"/>
      <point x="92" y="1082" type="line"/>
      <point x="92" y="0" type="line"/>
    </contour>
    <contour>
      <point x="328" y="567" type="curve"/>
      <point x="409" y="574" type="line"/>
      <point x="408" y="719"/>
      <point x="475" y="812"/>
      <point x="581" y="812" type="curve" smooth="yes"/>
      <point x="657" y="812"/>
      <point x="698" y="795"/>
      <point x="698" y="671" type="curve"/>
      <point x="698" y="0" type="line"/>
      <point x="1059" y="0" type="line"/>
      <point x="1059" y="722" type="line"/>
      <point x="1059" y="992"/>
      <point x="932" y="1102"/>
      <point x="745" y="1102" type="curve" smooth="yes"/>
      <point x="471" y="1102"/>
      <point x="326" y="878"/>
    </contour>
    <contour>
      <point x="919" y="554" type="curve"/>
      <point x="1017" y="552" type="line"/>
      <point x="1017" y="707"/>
      <point x="1071" y="812"/>
      <point x="1188" y="812" type="curve" smooth="yes"/>
      <point x="1261" y="812"/>
      <point x="1304" y="792"/>
      <point x="1304" y="675" type="curve" smooth="yes"/>
      <point x="1304" y="0" type="line"/>
      <point x="1666" y="0" type="line"/>
      <point x="1666" y="675" type="line" smooth="yes"/>
      <point x="1666" y="997"/>
      <point x="1525" y="1102"/>
      <point x="1328" y="1102" type="curve" smooth="yes"/>
      <point x="1053" y="1102"/>
      <point x="917" y="876"/>
    </contour>
  </outline>
</glyph>
<glyph name="n" format="2">
  <advance width="1158.55"/>
  <unicode hex="006E"/>
  <anchor x="579" y="10" name="bottom"/>
  <anchor x="1159" y="-407" name="bottom_dd"/>
  <anchor x="-108" y="1533" name="caron"/>
  <anchor x="578" y="1290" name="marktop"/>
  <anchor x="1077" y="0" name="right"/>
  <anchor x="578" y="1290" name="top"/>
  <anchor x="1159" y="1290" name="top0315"/>
  <anchor x="1159" y="1600" name="top_dd"/>
  <outline>
    <contour>
      <point x="442" y="0" type="line"/>
      <point x="442" y="851" type="line"/>
      <point x="419" y="1082" type="line"/>
      <point x="82" y="1082" type="line"/>
      <point x="82" y="0" type="line"/>
    </contour>
    <contour>
      <point x="317" y="567" type="curve"/>
      <point x="400" y="574" type="line"/>
      <point x="399" y="719"/>
      <point x="441" y="812"/>
      <point x="569" y="812" type="curve" smooth="yes"/>
      <point x="660" y="812"/>
      <point x="711" y="791"/>
      <point x="711" y="676" type="curve" smooth="yes"/>
      <point x="711" y="0" type="line"/>
      <point x="1073" y="0" type="line"/>
      <point x="1073" y="675" type="line" smooth="yes"/>
      <point x="1073" y="996"/>
      <point x="933" y="1102"/>
      <point x="734" y="1102" type="curve" smooth="yes"/>
      <point x="483" y="1102"/>
      <point x="315" y="911"/>
    </contour>
  </outline>
</glyph>
<glyph name="p" format="2">
  <advance width="1155.4"/>
  <unicode hex="0070"/>
  <anchor x="269" y="-407" name="bottom"/>
  <anchor x="1155" y="-407" name="bottom_dd"/>
  <anchor x="688" y="1280" name="marktop"/>
  <anchor x="688" y="1280" name="top"/>
  <anchor x="1155" y="1280" name="top0315"/>
  <anchor x="1155" y="1600" name="top_dd"/>
  <outline>
    <contour>
      <point x="452" y="-416" type="line"/>
      <point x="452" y="874" type="line"/>
      <point x="428" y="1082" type="line"/>
      <point x="92" y="1082" type="line"/>
      <point x="92" y="-416" type="line"/>
    </contour>
    <contour>
      <point x="1107" y="534" type="curve" smooth="yes"/>
      <point x="1107" y="555" type="line"/>
      <point x="1107" y="883"/>
      <point x="961" y="1102"/>
      <point x="685" y="1102" type="curve" smooth="yes"/>
      <point x="424" y="1102"/>
      <point x="326" y="851"/>
      <point x="282" y="532" type="curve"/>
      <point x="282" y="544" type="line"/>
      <point x="327" y="247"/>
      <point x="425" y="-20"/>
      <point x="686" y="-20" type="curve" smooth="yes"/>
      <point x="961" y="-20"/>
      <point x="1107" y="220"/>
    </contour>
    <contour>
      <point x="747" y="555" type="curve" smooth="yes"/>
      <point x="747" y="534" type="line"/>
      <point x="747" y="388"/>
      <point x="715" y="270"/>
      <point x="596" y="270" type="curve" smooth="yes"/>
      <point x="458" y="270"/>
      <point x="416" y="368"/>
      <point x="424" y="521" type="curve"/>
      <point x="424" y="555" type="line"/>
      <point x="418" y="739"/>
      <point x="461" y="812"/>
      <point x="594" y="812" type="curve" smooth="yes"/>
      <point x="710" y="812"/>
      <point x="747" y="708"/>
    </contour>
  </outline>
</glyph>
<glyph name="u" format="2">
  <advance width="1158.85"/>
  <unicode hex="0075"/>
  <anchor x="578" y="0" name="bottom"/>
  <anchor x="1159" y="-407" name="bottom_dd"/>
  <anchor x="446" y="0" name="bottomu"/>
  <anchor x="1028" y="0" name="ogonek"/>
  <anchor x="932" y="654" name="rhotichook"/>
  <anchor x="576" y="1290" name="top"/>
  <anchor x="1159" y="1290" name="top0315"/>
  <anchor x="1159" y="1600" name="top_dd"/>
  <outline>
    <contour>
      <point x="713" y="1082" type="line"/>
      <point x="713" y="266" type="line"/>
      <point x="737" y="0" type="line"/>
      <point x="1074" y="0" type="line"/>
      <point x="1074" y="1082" type="line"/>
    </contour>
    <contour>
      <point x="838" y="490" type="curve"/>
      <point x="747" y="488" type="line"/>
      <point x="747" y="361"/>
      <point x="706" y="270"/>
      <point x="565" y="270" type="curve" smooth="yes"/>
      <point x="484" y="270"/>
      <point x="443" y="311"/>
      <point x="443" y="379" type="curve"/>
      <point x="443" y="1082" type="line"/>
      <point x="83" y="1082" type="line"/>
      <point x="83" y="381" type="line"/>
      <point x="83" y="96"/>
      <point x="230" y="-20"/>
      <point x="445" y="-20" type="curve" smooth="yes"/>
      <point x="695" y="-20"/>
      <point x="838" y="196"/>
    </contour>
  </outline>
</glyph>
<glyph name="v" format="2">
  <advance width="1065.025"/>
  <unicode hex="0076"/>
  <anchor x="531" y="10" name="bottom"/>
  <anchor x="1065" y="-407" name="bottom_dd"/>
  <anchor x="531" y="1280" name="top"/>
  <anchor x="1065" y="1280" name="top0315"/>
  <anchor x="1065" y="1600" name="top_dd"/>
  <outline>
    <contour>
      <point x="684" y="1082" type="line"/>
      <point x="485" y="252" type="line"/>
      <point x="491" y="0" type="line"/>
      <point x="715" y="0" type="line"/>
      <point x="1063" y="1082" type="line"/>
    </contour>
    <contour>
      <point x="575" y="253" type="line"/>
      <point x="380" y="1082" type="line"/>
      <point x="-1" y="1082" type="line"/>
      <point x="347" y="0" type="line"/>
      <point x="571" y="0" type="line"/>
    </contour>
  </outline>
</glyph>
<glyph name="z" format="2">
  <advance width="1061.125"/>
  <unicode hex="007A"/>
  <anchor x="525" y="10" name="bottom"/>
  <anchor x="1061" y="-407" name="bottom_dd"/>
  <anchor x="528" y="1290" name="top"/>
  <anchor x="1061" y="1290" name="top0315"/>
  <anchor x="1061" y="1600" name="top_dd"/>
  <outline>
    <contour>
      <point x="990" y="0" type="line"/>
      <point x="990" y="290" type="line"/>
      <point x="150" y="290" type="line"/>
      <point x="150" y="0" type="line"/>
    </contour>
    <contour>
      <point x="312" y="0" type="line"/>
      <point x="983" y="883" type="line"/>
      <point x="983" y="1082" type="line"/>
      <point x="735" y="1082" type="line"/>
      <point x="65" y="205" type="line"/>
      <point x="65" y="0" type="line"/>
    </contour>
    <contour>
      <point x="866" y="792" type="line"/>
      <point x="866" y="1082" type="line"/>
      <point x="85" y="1082" type="line"/>
      <point x="85" y="792" type="line"/>
    </contour>
  </outline>
</glyph>
<glyph name="bar" format="2">
  <advance width="532.5"/>
  <unicode hex="007C"/>
  <outline>
    <contour>
      <point x="366" y="-270" type="line"/>
      <point x="366" y="1456" type="line"/>
      <point x="172" y="1456" type="line"/>
      <point x="172" y="-270" type="line"/>
    </contour>
  </outline>
</glyph>
<glyph name="braceright" format="2">
  <advance width="665.475"/>
  <unicode hex="007D"/>
  <outline>
    <contour>
      <point x="112" y="1597" type="curve"/>
      <point x="44" y="1403" type="line"/>
      <point x="140" y="1365"/>
      <point x="163" y="1260"/>
      <point x="163" y="1132" type="curve" smooth="yes"/>
      <point x="163" y="932" type="line" smooth="yes"/>
      <point x="163" y="728"/>
      <point x="299" y="566"/>
      <point x="629" y="566" type="curve"/>
      <point x="629" y="747" type="line"/>
      <point x="520" y="747"/>
      <point x="475" y="819"/>
      <point x="475" y="932" type="curve" smooth="yes"/>
      <point x="475" y="1132" type="line" smooth="yes"/>
      <point x="475" y="1342"/>
      <point x="389" y="1520"/>
    </contour>
    <contour>
      <point x="44" y="-159" type="curve"/>
      <point x="112" y="-354" type="line"/>
      <point x="389" y="-277"/>
      <point x="475" y="-98"/>
      <point x="475" y="112" type="curve" smooth="yes"/>
      <point x="475" y="312" type="line" smooth="yes"/>
      <point x="475" y="424"/>
      <point x="520" y="496"/>
      <point x="629" y="496" type="curve"/>
      <point x="629" y="679" type="line"/>
      <point x="299" y="679"/>
      <point x="163" y="517"/>
      <point x="163" y="312" type="curve" smooth="yes"/>
      <point x="163" y="112" type="line" smooth="yes"/>
      <point x="163" y="-15"/>
      <point x="140" y="-121"/>
    </contour>
  </outline>
</glyph>
<glyph name="asciitilde" format="2">
  <advance width="1285.3"/>
  <unicode hex="007E"/>
  <outline>
    <contour>
      <point x="1193" y="805" type="curve"/>
      <point x="937" y="807" type="line"/>
      <point x="937" y="719"/>
      <point x="892" y="646"/>
      <point x="829" y="646" type="curve" smooth="yes"/>
      <point x="785" y="646"/>
      <point x="742" y="672"/>
      <point x="696" y="719" type="curve" smooth="yes"/>
      <point x="612" y="806"/>
      <point x="527" y="845"/>
      <point x="426" y="845" type="curve" smooth="yes"/>
      <point x="229" y="845"/>
      <point x="89" y="690"/>
      <point x="89" y="401" type="curve"/>
      <point x="342" y="396" type="line"/>
      <point x="342" y="482"/>
      <point x="387" y="557"/>
      <point x="451" y="557" type="curve" smooth="yes"/>
      <point x="498" y="557"/>
      <point x="540" y="532"/>
      <point x="587" y="484" type="curve" smooth="yes"/>
      <point x="678" y="393"/>
      <point x="751" y="357"/>
      <point x="853" y="357" type="curve" smooth="yes"/>
      <point x="1051" y="357"/>
      <point x="1193" y="519"/>
    </contour>
  </outline>
</glyph>
<glyph name="exclamdown" format="2">
  <advance width="632.95"/>
  <unicode hex="00A1"/>
  <outline>
    <contour>
      <point x="171" y="609" type="line"/>
      <point x="124" y="-375" type="line"/>
      <point x="508" y="-375" type="line"/>
      <point x="462" y="609" type="line"/>
    </contour>
    <contour>
      <point x="517" y="810"/>
      <point x="517" y="916" type="curve" smooth="yes"/>
      <point x="517" y="1022"/>
      <point x="437" y="1102"/>
      <point x="319" y="1102" type="curve" smooth="yes"/>
      <point x="202" y="1102"/>
      <point x="122" y="1022"/>
      <point x="122" y="916" type="curve" smooth="yes"/>
      <point x="122" y="810"/>
      <point x="202" y="729"/>
      <point x="319" y="729" type="curve" smooth="yes"/>
      <point x="437" y="729"/>
    </contour>
  </outline>
</glyph>
<glyph name="sterling" format="2">
  <advance width="1236.35"/>
  <unicode hex="00A3"/>
  <outline>
    <contour>
      <point x="107" y="0" type="line"/>
      <point x="1185" y="0" type="line"/>
      <point x="1185" y="302" type="line"/>
      <point x="107" y="302" type="line"/>
    </contour>
    <contour>
      <point x="104" y="544" type="line"/>
      <point x="934" y="544" type="line"/>
      <point x="934" y="835" type="line"/>
      <point x="104" y="835" type="line"/>
    </contour>
    <contour>
      <point x="648" y="464" type="curve" smooth="yes"/>
      <point x="622" y="1039" type="line"/>
      <point x="622" y="1132"/>
      <point x="661" y="1173"/>
      <point x="719" y="1173" type="curve" smooth="yes"/>
      <point x="787" y="1173"/>
      <point x="840" y="1143"/>
      <point x="840" y="1039" type="curve"/>
      <point x="1192" y="1039" type="line"/>
      <point x="1192" y="1301"/>
      <point x="1022" y="1475"/>
      <point x="709" y="1475" type="curve" smooth="yes"/>
      <point x="429" y="1475"/>
      <point x="249" y="1315"/>
      <point x="249" y="1039" type="curve" smooth="yes"/>
      <point x="267" y="436" type="line" smooth="yes"/>
      <point x="267" y="367"/>
      <point x="267" y="316"/>
      <point x="210" y="302" type="curve"/>
      <point x="417" y="191" type="line"/>
      <point x="591" y="255"/>
      <point x="648" y="328"/>
    </contour>
  </outline>
</glyph>
<glyph name="currency" format="2">
  <advance width="1388.85"/>
  <unicode hex="00A4"/>
  <outline>
    <contour>
      <point x="296" y="367"/>
      <point x="296" y="608" type="curve"/>
      <point x="296" y="849"/>
      <point x="473" y="1030"/>
      <point x="696" y="1030" type="curve" smooth="yes"/>
      <point x="917" y="1030"/>
      <point x="1096" y="849"/>
      <point x="1096" y="608" type="curve" smooth="yes"/>
      <point x="1096" y="367"/>
      <point x="917" y="185"/>
      <point x="696" y="185" type="curve" smooth="yes"/>
      <point x="473" y="185"/>
    </contour>
    <contour>
      <point x="100" y="963"/>
      <point x="100" y="608" type="curve"/>
      <point x="100" y="254"/>
      <point x="367" y="-20"/>
      <point x="696" y="-20" type="curve" smooth="yes"/>
      <point x="1024" y="-20"/>
      <point x="1290" y="254"/>
      <point x="1290" y="608" type="curve" smooth="yes"/>
      <point x="1290" y="963"/>
      <point x="1024" y="1234"/>
      <point x="696" y="1234" type="curve" smooth="yes"/>
      <point x="367" y="1234"/>
    </contour>
    <contour>
      <point x="1129" y="906" type="line"/>
      <point x="1331" y="1112" type="line"/>
      <point x="1182" y="1265" type="line"/>
      <point x="981" y="1059" type="line"/>
    </contour>
    <contour>
      <point x="214" y="-26" type="line"/>
      <point x="416" y="180" type="line"/>
      <point x="267" y="331" type="line"/>
      <point x="65" y="126" type="line"/>
    </contour>
    <contour>
      <point x="981" y="179" type="line"/>
      <point x="1182" y="-27" type="line"/>
      <point x="1331" y="126" type="line"/>
      <point x="1129" y="331" type="line"/>
    </contour>
    <contour>
      <point x="65" y="1112" type="line"/>
      <point x="267" y="906" type="line"/>
      <point x="416" y="1058" type="line"/>
      <point x="214" y="1264" type="line"/>
    </contour>
  </outline>
</glyph>
<glyph name="yen" format="2">
  <advance width="1113.775"/>
  <unicode hex="00A5"/>
  <outline>
    <contour>
      <point x="1003" y="538" type="line"/>
      <point x="1003" y="747" type="line"/>
      <point x="70" y="747" type="line"/>
      <point x="70" y="538" type="line"/>
    </contour>
    <contour>
      <point x="1003" y="249" type="line"/>
      <point x="1003" y="457" type="line"/>
      <point x="70" y="457" type="line"/>
      <point x="70" y="249" type="line"/>
    </contour>
    <contour>
      <point x="725" y="1456" type="line"/>
      <point x="476" y="739" type="line"/>
      <point x="523" y="524" type="line"/>
      <point x="720" y="524" type="line"/>
      <point x="1106" y="1456" type="line"/>
    </contour>
    <contour>
      <point x="644" y="729" type="line"/>
      <point x="389" y="1456" type="line"/>
      <point x="8" y="1456" type="line"/>
      <point x="396" y="524" type="line"/>
      <point x="593" y="524" type="line"/>
    </contour>
    <contour>
      <point x="740" y="0" type="line"/>
      <point x="740" y="752" type="line"/>
      <point x="366" y="752" type="line"/>
      <point x="366" y="0" type="line"/>
    </contour>
  </outline>
</glyph>
<glyph name="dieresis" format="2">
  <advance width="1023.275"/>
  <unicode hex="00A8"/>
  <outline>
    <contour>
      <point x="89" y="1441"/>
      <point x="89" y="1361" type="curve" smooth="yes"/>
      <point x="89" y="1280"/>
      <point x="161" y="1218"/>
      <point x="248" y="1218" type="curve" smooth="yes"/>
      <point x="335" y="1218"/>
      <point x="407" y="1280"/>
      <point x="407" y="1361" type="curve" smooth="yes"/>
      <point x="407" y="1441"/>
      <point x="335" y="1503"/>
      <point x="248" y="1503" type="curve" smooth="yes"/>
      <point x="161" y="1503"/>
    </contour>
    <contour>
      <point x="615" y="1441"/>
      <point x="615" y="1361" type="curve" smooth="yes"/>
      <point x="615" y="1280"/>
      <point x="687" y="1218"/>
      <point x="774" y="1218" type="curve" smooth="yes"/>
      <point x="861" y="1218"/>
      <point x="932" y="1280"/>
      <point x="932" y="1361" type="curve" smooth="yes"/>
      <point x="932" y="1441"/>
      <point x="861" y="1503"/>
      <point x="774" y="1503" type="curve" smooth="yes"/>
      <point x="687" y="1503"/>
    </contour>
  </outline>
</glyph>
<glyph name="copyright" format="2">
  <advance width="1604.4"/>
  <unicode hex="00A9"/>
  <outline>
    <contour>
      <point x="1116" y="595" type="curve"/>
      <point x="952" y="595" type="line"/>
      <point x="952" y="468"/>
      <point x="893" y="422"/>
      <point x="778" y="422" type="curve" smooth="yes"/>
      <point x="653" y="422"/>
      <point x="590" y="521"/>
      <point x="590" y="668" type="curve" smooth="yes"/>
      <point x="590" y="791" type="line" smooth="yes"/>
      <point x="590" y="935"/>
      <point x="653" y="1035"/>
      <point x="778" y="1035" type="curve" smooth="yes"/>
      <point x="893" y="1035"/>
      <point x="953" y="987"/>
      <point x="953" y="862" type="curve"/>
      <point x="1117" y="862" type="line"/>
      <point x="1117" y="1071"/>
      <point x="986" y="1177"/>
      <point x="778" y="1177" type="curve" smooth="yes"/>
      <point x="562" y="1177"/>
      <point x="427" y="1019"/>
      <point x="427" y="790" type="curve"/>
      <point x="427" y="668" type="line"/>
      <point x="427" y="438"/>
      <point x="562" y="281"/>
      <point x="778" y="281" type="curve" smooth="yes"/>
      <point x="986" y="281"/>
      <point x="1116" y="385"/>
    </contour>
    <contour>
      <point x="210" y="379"/>
      <point x="210" y="729" type="curve"/>
      <point x="210" y="1079"/>
      <point x="470" y="1346"/>
      <point x="793" y="1346" type="curve" smooth="yes"/>
      <point x="1114" y="1346"/>
      <point x="1375" y="1079"/>
      <point x="1375" y="729" type="curve" smooth="yes"/>
      <point x="1375" y="379"/>
      <point x="1114" y="110"/>
      <point x="793" y="110" type="curve" smooth="yes"/>
      <point x="470" y="110"/>
    </contour>
    <contour>
      <point x="83" y="1152"/>
      <point x="83" y="729" type="curve"/>
      <point x="83" y="306"/>
      <point x="401" y="-20"/>
      <point x="793" y="-20" type="curve" smooth="yes"/>
      <point x="1184" y="-20"/>
      <point x="1503" y="306"/>
      <point x="1503" y="729" type="curve" smooth="yes"/>
      <point x="1503" y="1152"/>
      <point x="1184" y="1476"/>
      <point x="793" y="1476" type="curve" smooth="yes"/>
      <point x="401" y="1476"/>
    </contour>
  </outline>
</glyph>
<glyph name="ordfeminine" format="2">
  <advance width="904.8"/>
  <unicode hex="00AA"/>
  <outline>
    <contour>
      <point x="571" y="1201" type="curve"/>
      <point x="571" y="861" type="line"/>
      <point x="571" y="806"/>
      <point x="578" y="752"/>
      <point x="595" y="705" type="curve"/>
      <point x="781" y="705" type="line"/>
      <point x="761" y="763"/>
      <point x="755" y="821"/>
      <point x="755" y="886" type="curve" smooth="yes"/>
      <point x="755" y="1200" type="line"/>
      <point x="755" y="1383"/>
      <point x="637" y="1476"/>
      <point x="461" y="1476" type="curve" smooth="yes"/>
      <point x="272" y="1476"/>
      <point x="148" y="1378"/>
      <point x="148" y="1243" type="curve"/>
      <point x="330" y="1228" type="line"/>
      <point x="330" y="1288"/>
      <point x="379" y="1321"/>
      <point x="461" y="1321" type="curve" smooth="yes"/>
      <point x="535" y="1321"/>
      <point x="571" y="1279"/>
    </contour>
    <contour>
      <point x="617" y="1029" type="line"/>
      <point x="616" y="1151" type="line"/>
      <point x="474" y="1151" type="line"/>
      <point x="242" y="1151"/>
      <point x="131" y="1067"/>
      <point x="131" y="920" type="curve" smooth="yes"/>
      <point x="131" y="781"/>
      <point x="220" y="691"/>
      <point x="380" y="691" type="curve" smooth="yes"/>
      <point x="516" y="691"/>
      <point x="590" y="767"/>
      <point x="620" y="830" type="curve"/>
      <point x="602" y="952" type="line"/>
      <point x="602" y="905"/>
      <point x="504" y="842"/>
      <point x="426" y="842" type="curve" smooth="yes"/>
      <point x="351" y="842"/>
      <point x="315" y="872"/>
      <point x="315" y="924" type="curve" smooth="yes"/>
      <point x="315" y="978"/>
      <point x="363" y="1029"/>
      <point x="475" y="1029" type="curve"/>
    </contour>
  </outline>
</glyph>
<glyph name="macron" format="2">
  <advance width="1086.15"/>
  <unicode hex="00AF"/>
  <outline>
    <contour>
      <point x="889" y="1276" type="line"/>
      <point x="889" y="1461" type="line"/>
      <point x="185" y="1461" type="line"/>
      <point x="185" y="1276" type="line"/>
    </contour>
  </outline>
</glyph>
<glyph name="degree" format="2">
  <advance width="816.625"/>
  <unicode hex="00B0"/>
  <outline>
    <contour>
      <point x="123" y="1346"/>
      <point x="123" y="1189" type="curve"/>
      <point x="123" y="1032"/>
      <point x="252" y="906"/>
      <point x="408" y="906" type="curve" smooth="yes"/>
      <point x="561" y="906"/>
      <point x="687" y="1032"/>
      <point x="687" y="1189" type="curve" smooth="yes"/>
      <point x="687" y="1346"/>
      <point x="561" y="1476"/>
      <point x="408" y="1476" type="curve" smooth="yes"/>
      <point x="252" y="1476"/>
    </contour>
    <contour>
      <point x="286" y="1120"/>
      <point x="286" y="1189" type="curve"/>
      <point x="286" y="1259"/>
      <point x="342" y="1313"/>
      <point x="408" y="1313" type="curve" smooth="yes"/>
      <point x="473" y="1313"/>
      <point x="524" y="1259"/>
      <point x="524" y="1189" type="curve" smooth="yes"/>
      <point x="524" y="1119"/>
      <point x="473" y="1069"/>
      <point x="408" y="1069" type="curve" smooth="yes"/>
      <point x="342" y="1069"/>
    </contour>
  </outline>
</glyph>
<glyph name="acute" format="2">
  <advance width="705.925"/>
  <unicode hex="00B4"/>
  <outline>
    <contour>
      <point x="285" y="1536" type="line"/>
      <point x="87" y="1216" type="line"/>
      <point x="380" y="1216" type="line"/>
      <point x="664" y="1536" type="line"/>
    </contour>
  </outline>
</glyph>
<glyph name="mu" format="2">
  <advance width="1159"/>
  <unicode hex="00B5"/>
  <outline>
    <contour>
      <point x="84" y="568" type="line"/>
      <point x="37" y="-416" type="line"/>
      <point x="421" y="-416" type="line"/>
      <point x="375" y="568" type="line"/>
    </contour>
    <contour>
      <point x="713" y="1082" type="line"/>
      <point x="713" y="266" type="line"/>
      <point x="737" y="0" type="line"/>
      <point x="1074" y="0" type="line"/>
      <point x="1074" y="1082" type="line"/>
    </contour>
    <contour>
      <point x="838" y="490" type="curve"/>
      <point x="747" y="488" type="line"/>
      <point x="747" y="361"/>
      <point x="706" y="270"/>
      <point x="565" y="270" type="curve" smooth="yes"/>
      <point x="484" y="270"/>
      <point x="443" y="311"/>
      <point x="443" y="379" type="curve"/>
      <point x="443" y="1082" type="line"/>
      <point x="83" y="1082" type="line"/>
      <point x="83" y="381" type="line"/>
      <point x="83" y="96"/>
      <point x="230" y="-20"/>
      <point x="445" y="-20" type="curve" smooth="yes"/>
      <point x="695" y="-20"/>
      <point x="838" y="196"/>
    </contour>
  </outline>
</glyph>
<glyph name="periodcentered" format="2">
  <advance width="673.425"/>
  <unicode hex="00B7"/>
  <outline>
    <contour>
      <point x="135" y="782"/>
      <point x="135" y="677" type="curve" smooth="yes"/>
      <point x="135" y="571"/>
      <point x="216" y="491"/>
      <point x="332" y="491" type="curve" smooth="yes"/>
      <point x="449" y="491"/>
      <point x="529" y="571"/>
      <point x="529" y="677" type="curve" smooth="yes"/>
      <point x="529" y="782"/>
      <point x="449" y="862"/>
      <point x="332" y="862" type="curve" smooth="yes"/>
      <point x="216" y="862"/>
    </contour>
  </outline>
</glyph>
<glyph name="cedilla" format="2">
  <advance width="576.425"/>
  <unicode hex="00B8"/>
  <anchor x="248" y="0" name="_bottom"/>
  <anchor x="248" y="-480" name="mkmkbottom_acc"/>
  <outline>
    <contour>
      <point x="388" y="12" type="line"/>
      <point x="114" y="12" type="line"/>
      <point x="83" y="-137" type="line"/>
      <point x="175" y="-142"/>
      <point x="213" y="-157"/>
      <point x="213" y="-203" type="curve" smooth="yes"/>
      <point x="213" y="-253"/>
      <point x="183" y="-273"/>
      <point x="136" y="-273" type="curve"/>
      <point x="143" y="-480" type="line"/>
      <point x="394" y="-480"/>
      <point x="525" y="-378"/>
      <point x="525" y="-222" type="curve" smooth="yes"/>
      <point x="525" y="-108"/>
      <point x="449" y="-62"/>
      <point x="377" y="-49" type="curve"/>
    </contour>
  </outline>
</glyph>
<glyph name="ordmasculine" format="2">
  <advance width="940.4"/>
  <unicode hex="00BA"/>
  <outline>
    <contour>
      <point x="115" y="1119" type="curve"/>
      <point x="115" y="1045" type="line"/>
      <point x="115" y="837"/>
      <point x="251" y="690"/>
      <point x="467" y="690" type="curve" smooth="yes"/>
      <point x="681" y="690"/>
      <point x="815" y="837"/>
      <point x="815" y="1045" type="curve"/>
      <point x="815" y="1119" type="line"/>
      <point x="815" y="1327"/>
      <point x="681" y="1476"/>
      <point x="465" y="1476" type="curve" smooth="yes"/>
      <point x="251" y="1476"/>
      <point x="115" y="1327"/>
    </contour>
    <contour>
      <point x="300" y="1045" type="curve"/>
      <point x="300" y="1119" type="line"/>
      <point x="300" y="1234"/>
      <point x="354" y="1321"/>
      <point x="465" y="1321" type="curve" smooth="yes"/>
      <point x="577" y="1321"/>
      <point x="631" y="1234"/>
      <point x="631" y="1119" type="curve"/>
      <point x="631" y="1045" type="line"/>
      <point x="631" y="929"/>
      <point x="577" y="843"/>
      <point x="467" y="843" type="curve" smooth="yes"/>
      <point x="354" y="843"/>
      <point x="300" y="929"/>
    </contour>
  </outline>
</glyph>
<glyph name="questiondown" format="2">
  <advance width="1054.3"/>
  <unicode hex="00BF"/>
  <outline>
    <contour>
      <point x="720" y="618" type="curve"/>
      <point x="414" y="618" type="line"/>
      <point x="411" y="512"/>
      <point x="400" y="466"/>
      <point x="324" y="398" type="curve"/>
      <point x="190" y="275"/>
      <point x="71" y="185"/>
      <point x="71" y="15" type="curve" smooth="yes"/>
      <point x="71" y="-248"/>
      <point x="250" y="-385"/>
      <point x="546" y="-385" type="curve" smooth="yes"/>
      <point x="816" y="-385"/>
      <point x="1026" y="-262"/>
      <point x="1030" y="51" type="curve"/>
      <point x="669" y="51" type="line"/>
      <point x="665" y="-56"/>
      <point x="610" y="-96"/>
      <point x="538" y="-96" type="curve" smooth="yes"/>
      <point x="478" y="-96"/>
      <point x="432" y="-66"/>
      <point x="432" y="15" type="curve" smooth="yes"/>
      <point x="432" y="103"/>
      <point x="493" y="162"/>
      <point x="586" y="242" type="curve" smooth="yes"/>
      <point x="693" y="327"/>
      <point x="720" y="444"/>
    </contour>
    <contour>
      <point x="774" y="811"/>
      <point x="774" y="917" type="curve" smooth="yes"/>
      <point x="774" y="1023"/>
      <point x="694" y="1103"/>
      <point x="577" y="1103" type="curve" smooth="yes"/>
      <point x="459" y="1103"/>
      <point x="379" y="1023"/>
      <point x="379" y="917" type="curve" smooth="yes"/>
      <point x="379" y="811"/>
      <point x="459" y="731"/>
      <point x="577" y="731" type="curve" smooth="yes"/>
      <point x="694" y="731"/>
    </contour>
  </outline>
</glyph>
<glyph name="AE" format="2">
  <advance width="1934.4"/>
  <unicode hex="00C6"/>
  <anchor x="931" y="1612" name="top"/>
  <anchor x="1934" y="1612" name="top0315"/>
  <anchor x="1934" y="1600" name="top_dd"/>
  <outline>
    <contour>
      <point x="431" y="0" type="line"/>
      <point x="1011" y="1290" type="line"/>
      <point x="962" y="1456" type="line"/>
      <point x="736" y="1456" type="line"/>
      <point x="14" y="0" type="line"/>
    </contour>
    <contour>
      <point x="1092" y="319" type="line"/>
      <point x="1092" y="618" type="line"/>
      <point x="333" y="618" type="line"/>
      <point x="333" y="319" type="line"/>
    </contour>
    <contour>
      <point x="1857" y="0" type="line"/>
      <point x="1857" y="295" type="line"/>
      <point x="1125" y="295" type="line"/>
      <point x="1125" y="0" type="line"/>
    </contour>
    <contour>
      <point x="1310" y="0" type="line"/>
      <point x="1249" y="1456" type="line"/>
      <point x="888" y="1456" type="line"/>
      <point x="949" y="0" type="line"/>
    </contour>
    <contour>
      <point x="1715" y="593" type="line"/>
      <point x="1715" y="888" type="line"/>
      <point x="1084" y="888" type="line"/>
      <point x="1084" y="593" type="line"/>
    </contour>
    <contour>
      <point x="1796" y="1161" type="line"/>
      <point x="1796" y="1456" type="line"/>
      <point x="1064" y="1456" type="line"/>
      <point x="1064" y="1161" type="line"/>
    </contour>
  </outline>
</glyph>
<glyph name="multiply" format="2">
  <advance width="1085.675"/>
  <unicode hex="00D7"/>
  <outline>
    <contour>
      <point x="49" y="411" type="line"/>
      <point x="255" y="209" type="line"/>
      <point x="1034" y="1003" type="line"/>
      <point x="828" y="1205" type="line"/>
    </contour>
    <contour>
      <point x="47" y="1003" type="line"/>
      <point x="826" y="209" type="line"/>
      <point x="1032" y="411" type="line"/>
      <point x="253" y="1205" type="line"/>
    </contour>
  </outline>
</glyph>
<glyph name="Oslash" format="2">
  <advance width="1412.85"/>
  <unicode hex="00D8"/>
  <anchor x="716" y="1674" name="top"/>
  <anchor x="1413" y="1674" name="top0315"/>
  <anchor x="1413" y="1600" name="top_dd"/>
  <outline>
    <contour>
      <point x="355" y="-97" type="line"/>
      <point x="1275" y="1520" type="line"/>
      <point x="1056" y="1520" type="line"/>
      <point x="136" y="-97" type="line"/>
    </contour>
    <component base="O" xOffset="12"/>
  </outline>
</glyph>
<glyph name="germandbls" format="2">
  <advance width="1342.525"/>
  <unicode hex="00DF"/>
  <outline>
    <contour>
      <point x="493" y="0" type="line"/>
      <point x="493" y="1087" type="line"/>
      <point x="493" y="1236"/>
      <point x="544" y="1274"/>
      <point x="620" y="1274" type="curve" smooth="yes"/>
      <point x="699" y="1274"/>
      <point x="753" y="1222"/>
      <point x="753" y="1156" type="curve" smooth="yes"/>
      <point x="753" y="1001"/>
      <point x="661" y="1004"/>
      <point x="661" y="815" type="curve" smooth="yes"/>
      <point x="661" y="565"/>
      <point x="930" y="523"/>
      <point x="930" y="378" type="curve" smooth="yes"/>
      <point x="930" y="305"/>
      <point x="876" y="271"/>
      <point x="806" y="271" type="curve" smooth="yes"/>
      <point x="708" y="271"/>
      <point x="640" y="289"/>
      <point x="600" y="307" type="curve"/>
      <point x="538" y="25" type="line"/>
      <point x="594" y="-5"/>
      <point x="704" y="-20"/>
      <point x="803" y="-20" type="curve" smooth="yes"/>
      <point x="1131" y="-20"/>
      <point x="1289" y="136"/>
      <point x="1289" y="381" type="curve" smooth="yes"/>
      <point x="1289" y="627"/>
      <point x="1022" y="736"/>
      <point x="1022" y="838" type="curve" smooth="yes"/>
      <point x="1022" y="1005"/>
      <point x="1115" y="983"/>
      <point x="1115" y="1171" type="curve" smooth="yes"/>
      <point x="1115" y="1427"/>
      <point x="906" y="1564"/>
      <point x="662" y="1564" type="curve" smooth="yes"/>
      <point x="332" y="1564"/>
      <point x="133" y="1404"/>
      <point x="133" y="1094" type="curve" smooth="yes"/>
      <point x="133" y="0" type="line"/>
    </contour>
  </outline>
</glyph>
<glyph name="ae" format="2">
  <advance width="1729.775"/>
  <unicode hex="00E6"/>
  <anchor x="864" y="1291" name="top"/>
  <anchor x="1730" y="1291" name="top0315"/>
  <anchor x="1730" y="1600" name="top_dd"/>
  <outline>
    <contour>
      <point x="710" y="697" type="curve"/>
      <point x="710" y="183" type="line"/>
      <point x="1059" y="218" type="line"/>
      <point x="1059" y="695" type="line"/>
      <point x="1059" y="966"/>
      <point x="878" y="1102"/>
      <point x="595" y="1102" type="curve" smooth="yes"/>
      <point x="291" y="1102"/>
      <point x="98" y="956"/>
      <point x="98" y="755" type="curve"/>
      <point x="458" y="735" type="line"/>
      <point x="458" y="778"/>
      <point x="504" y="812"/>
      <point x="590" y="812" type="curve" smooth="yes"/>
      <point x="667" y="812"/>
      <point x="710" y="768"/>
    </contour>
    <contour>
      <point x="758" y="436" type="line"/>
      <point x="755" y="660" type="line"/>
      <point x="586" y="660" type="line"/>
      <point x="240" y="660"/>
      <point x="59" y="541"/>
      <point x="59" y="330" type="curve" smooth="yes"/>
      <point x="59" y="117"/>
      <point x="210" y="-20"/>
      <point x="488" y="-20" type="curve" smooth="yes"/>
      <point x="731" y="-20"/>
      <point x="872" y="95"/>
      <point x="922" y="191" type="curve"/>
      <point x="761" y="358" type="line"/>
      <point x="763" y="304"/>
      <point x="648" y="236"/>
      <point x="557" y="236" type="curve" smooth="yes"/>
      <point x="462" y="236"/>
      <point x="419" y="269"/>
      <point x="419" y="326" type="curve" smooth="yes"/>
      <point x="419" y="382"/>
      <point x="478" y="436"/>
      <point x="588" y="436" type="curve"/>
    </contour>
    <contour>
      <point x="896" y="-20"/>
      <point x="1236" y="-20" type="curve"/>
      <point x="1403" y="-20"/>
      <point x="1568" y="33"/>
      <point x="1652" y="100" type="curve"/>
      <point x="1567" y="327" type="line"/>
      <point x="1483" y="293"/>
      <point x="1414" y="271"/>
      <point x="1286" y="271" type="curve" smooth="yes"/>
      <point x="1121" y="271"/>
      <point x="1058" y="357"/>
      <point x="1058" y="478" type="curve" smooth="yes"/>
      <point x="1058" y="564" type="line" smooth="yes"/>
      <point x="1058" y="710"/>
      <point x="1088" y="812"/>
      <point x="1226" y="812" type="curve"/>
      <point x="1296" y="812"/>
      <point x="1336" y="766"/>
      <point x="1336" y="673" type="curve"/>
      <point x="1336" y="648" type="line"/>
      <point x="844" y="648" type="line"/>
      <point x="844" y="416" type="line"/>
      <point x="1688" y="416" type="line"/>
      <point x="1688" y="608" type="line" smooth="yes"/>
      <point x="1688" y="911"/>
      <point x="1510" y="1102"/>
      <point x="1226" y="1102" type="curve" smooth="yes"/>
      <point x="874" y="1104"/>
      <point x="708" y="880"/>
      <point x="708" y="564" type="curve" smooth="yes"/>
      <point x="708" y="478" type="line" smooth="yes"/>
      <point x="708" y="188"/>
    </contour>
  </outline>
</glyph>
<glyph name="thorn" format="2">
  <advance width="1150.3"/>
  <unicode hex="00FE"/>
  <outline>
    <contour>
      <point x="451" y="-416" type="line"/>
      <point x="451" y="1536" type="line"/>
      <point x="89" y="1536" type="line"/>
      <point x="89" y="-416" type="line"/>
    </contour>
    <contour>
      <point x="1105" y="534" type="curve" smooth="yes"/>
      <point x="1105" y="555" type="line"/>
      <point x="1105" y="883"/>
      <point x="958" y="1102"/>
      <point x="682" y="1102" type="curve" smooth="yes"/>
      <point x="421" y="1102"/>
      <point x="323" y="851"/>
      <point x="280" y="532" type="curve"/>
      <point x="280" y="544" type="line"/>
      <point x="324" y="247"/>
      <point x="422" y="-20"/>
      <point x="684" y="-20" type="curve" smooth="yes"/>
      <point x="959" y="-20"/>
      <point x="1105" y="220"/>
    </contour>
    <contour>
      <point x="744" y="555" type="curve" smooth="yes"/>
      <point x="744" y="534" type="line"/>
      <point x="744" y="388"/>
      <point x="712" y="270"/>
      <point x="594" y="270" type="curve" smooth="yes"/>
      <point x="455" y="270"/>
      <point x="413" y="368"/>
      <point x="422" y="521" type="curve"/>
      <point x="422" y="555" type="line"/>
      <point x="415" y="739"/>
      <point x="458" y="812"/>
      <point x="592" y="812" type="curve" smooth="yes"/>
      <point x="707" y="812"/>
      <point x="744" y="708"/>
    </contour>
  </outline>
</glyph>
<glyph name="dotlessi" format="2">
  <advance width="598.675"/>
  <unicode hex="0131"/>
  <anchor x="287" y="10" name="bottom"/>
  <anchor x="373" y="654" name="rhotichook"/>
  <anchor x="300" y="1266" name="top"/>
  <anchor x="599" y="1266" name="top0315"/>
  <outline>
    <contour>
      <point x="481" y="0" type="line"/>
      <point x="481" y="1082" type="line"/>
      <point x="119" y="1082" type="line"/>
      <point x="119" y="0" type="line"/>
    </contour>
  </outline>
</glyph>
<glyph name="OE" format="2">
  <advance width="2004.2"/>
  <unicode hex="0152"/>
  <anchor x="1010" y="0" name="bottom"/>
  <anchor x="2004" y="-407" name="bottom_dd"/>
  <anchor x="1010" y="1598" name="top"/>
  <anchor x="2004" y="1598" name="top0315"/>
  <anchor x="2004" y="1600" name="top_dd"/>
  <outline>
    <contour>
      <point x="828" y="1476"/>
      <point x="728" y="1476" type="curve" smooth="yes"/>
      <point x="349" y="1476"/>
      <point x="91" y="1233"/>
      <point x="91" y="880" type="curve"/>
      <point x="91" y="576" type="line"/>
      <point x="91" y="223"/>
      <point x="351" y="-20"/>
      <point x="730" y="-20" type="curve" smooth="yes"/>
      <point x="830" y="-20"/>
      <point x="927" y="-10"/>
      <point x="1015" y="0" type="curve"/>
      <point x="1015" y="298" type="line"/>
      <point x="929" y="282"/>
      <point x="832" y="271"/>
      <point x="730" y="271" type="curve" smooth="yes"/>
      <point x="559" y="271"/>
      <point x="452" y="369"/>
      <point x="452" y="576" type="curve"/>
      <point x="452" y="882" type="line"/>
      <point x="452" y="1089"/>
      <point x="557" y="1185"/>
      <point x="728" y="1185" type="curve" smooth="yes"/>
      <point x="831" y="1185"/>
      <point x="929" y="1173"/>
      <point x="1015" y="1158" type="curve"/>
      <point x="1015" y="1456" type="line"/>
      <point x="927" y="1467"/>
    </contour>
    <component base="E" xOffset="813"/>
  </outline>
</glyph>
<glyph name="circumflex" format="2">
  <advance width="1052.15"/>
  <unicode hex="02C6"/>
  <anchor x="525" y="1290" name="_top"/>
  <anchor x="525" y="1643" name="mkmktop_acc"/>
  <outline>
    <contour>
      <point x="965" y="1253" type="line"/>
      <point x="629" y="1537" type="line"/>
      <point x="423" y="1537" type="line"/>
      <point x="93" y="1257" type="line"/>
      <point x="93" y="1239" type="line"/>
      <point x="369" y="1239" type="line"/>
      <point x="525" y="1366" type="line"/>
      <point x="683" y="1239" type="line"/>
      <point x="965" y="1239" type="line"/>
    </contour>
  </outline>
</glyph>
<glyph name="tilde" format="2">
  <advance width="1000.35"/>
  <unicode hex="02DC"/>
  <anchor x="507" y="1297" name="_top"/>
  <anchor x="508" y="1699" name="mkmktop_acc"/>
  <outline>
    <contour>
      <point x="898" y="1541" type="curve"/>
      <point x="702" y="1552" type="line"/>
      <point x="702" y="1493"/>
      <point x="667" y="1469"/>
      <point x="626" y="1469" type="curve" smooth="yes"/>
      <point x="530" y="1469"/>
      <point x="450" y="1547"/>
      <point x="348" y="1547" type="curve" smooth="yes"/>
      <point x="210" y="1547"/>
      <point x="114" y="1407"/>
      <point x="114" y="1264" type="curve"/>
      <point x="312" y="1253" type="line"/>
      <point x="312" y="1312"/>
      <point x="344" y="1337"/>
      <point x="385" y="1337" type="curve" smooth="yes"/>
      <point x="486" y="1337"/>
      <point x="541" y="1257"/>
      <point x="663" y="1257" type="curve" smooth="yes"/>
      <point x="802" y="1257"/>
      <point x="898" y="1393"/>
    </contour>
  </outline>
</glyph>
<glyph name="alpha" format="2">
  <advance width="1152.4"/>
  <unicode hex="03B1"/>
  <anchor x="480" y="-10" name="bottom"/>
  <anchor x="616" y="1290" name="top"/>
  <anchor x="1152" y="1290" name="top0315"/>
  <outline>
    <contour>
      <point x="56" y="542" type="curve" smooth="yes"/>
      <point x="56" y="521" type="line"/>
      <point x="56" y="205"/>
      <point x="203" y="-20"/>
      <point x="478" y="-20" type="curve" smooth="yes"/>
      <point x="709" y="-20"/>
      <point x="797" y="227"/>
      <point x="838" y="521" type="curve"/>
      <point x="838" y="518" type="line"/>
      <point x="798" y="835"/>
      <point x="709" y="1102"/>
      <point x="480" y="1102" type="curve" smooth="yes"/>
      <point x="203" y="1102"/>
      <point x="56" y="868"/>
    </contour>
    <contour>
      <point x="417" y="521" type="curve" smooth="yes"/>
      <point x="417" y="542" type="line"/>
      <point x="417" y="692"/>
      <point x="456" y="812"/>
      <point x="571" y="812" type="curve" smooth="yes"/>
      <point x="687" y="812"/>
      <point x="730" y="731"/>
      <point x="737" y="557" type="curve"/>
      <point x="737" y="487" type="line"/>
      <point x="733" y="341"/>
      <point x="689" y="271"/>
      <point x="569" y="271" type="curve" smooth="yes"/>
      <point x="450" y="271"/>
      <point x="417" y="373"/>
    </contour>
    <contour>
      <point x="1048" y="1082" type="line"/>
      <point x="733" y="1082" type="line"/>
      <point x="688" y="853" type="line"/>
      <point x="688" y="278" type="line"/>
      <point x="728" y="77"/>
      <point x="845" y="-21"/>
      <point x="1024" y="-21" type="curve" smooth="yes"/>
      <point x="1072" y="-21"/>
      <point x="1107" y="-18"/>
      <point x="1152" y="-2" type="curve"/>
      <point x="1126" y="272" type="line"/>
      <point x="1124" y="270"/>
      <point x="1121" y="270"/>
      <point x="1114" y="270" type="curve" smooth="yes"/>
      <point x="1069" y="270"/>
      <point x="1048" y="302"/>
      <point x="1048" y="389" type="curve" smooth="yes"/>
    </contour>
  </outline>
</glyph>
<glyph name="hatafsegolhebrew" format="2">
  <unicode hex="05B1"/>
  <anchor x="651" y="0" name="_bottom"/>
  <outline>
    <contour>
      <point x="350" y="-353" type="curve" smooth="yes"/>
      <point x="415" y="-353"/>
      <point x="462" y="-311"/>
      <point x="462" y="-253" type="curve" smooth="yes"/>
      <point x="462" y="-195"/>
      <point x="415" y="-153"/>
      <point x="350" y="-153" type="curve" smooth="yes"/>
      <point x="284" y="-153"/>
      <point x="236" y="-195"/>
      <point x="236" y="-253" type="curve" smooth="yes"/>
      <point x="236" y="-311"/>
      <point x="286" y="-353"/>
    </contour>
    <contour>
      <point x="652" y="-353" type="curve" smooth="yes"/>
      <point x="717" y="-353"/>
      <point x="764" y="-311"/>
      <point x="764" y="-253" type="curve" smooth="yes"/>
      <point x="764" y="-195"/>
      <point x="717" y="-153"/>
      <point x="652" y="-153" type="curve" smooth="yes"/>
      <point x="586" y="-153"/>
      <point x="538" y="-195"/>
      <point x="538" y="-253" type="curve" smooth="yes"/>
      <point x="538" y="-311"/>
      <point x="587" y="-353"/>
    </contour>
    <contour>
      <point x="958" y="-353" type="curve" smooth="yes"/>
      <point x="1024" y="-353"/>
      <point x="1071" y="-311"/>
      <point x="1071" y="-253" type="curve" smooth="yes"/>
      <point x="1071" y="-195"/>
      <point x="1024" y="-153"/>
      <point x="958" y="-153" type="curve" smooth="yes"/>
      <point x="893" y="-153"/>
      <point x="845" y="-195"/>
      <point x="845" y="-253" type="curve" smooth="yes"/>
      <point x="845" y="-311"/>
      <point x="894" y="-353"/>
    </contour>
    <contour>
      <point x="501" y="-605" type="curve" smooth="yes"/>
      <point x="566" y="-605"/>
      <point x="613" y="-564"/>
      <point x="613" y="-506" type="curve" smooth="yes"/>
      <point x="613" y="-448"/>
      <point x="566" y="-405"/>
      <point x="501" y="-405" type="curve" smooth="yes"/>
      <point x="436" y="-405"/>
      <point x="387" y="-448"/>
      <point x="387" y="-506" type="curve" smooth="yes"/>
      <point x="387" y="-564"/>
      <point x="436" y="-605"/>
    </contour>
    <contour>
      <point x="958" y="-647" type="curve" smooth="yes"/>
      <point x="1024" y="-647"/>
      <point x="1071" y="-604"/>
      <point x="1071" y="-547" type="curve" smooth="yes"/>
      <point x="1071" y="-489"/>
      <point x="1024" y="-447"/>
      <point x="958" y="-447" type="curve" smooth="yes"/>
      <point x="894" y="-447"/>
      <point x="845" y="-489"/>
      <point x="845" y="-547" type="curve" smooth="yes"/>
      <point x="845" y="-604"/>
      <point x="894" y="-647"/>
    </contour>
  </outline>
</glyph>
<glyph name="hatafpatahhebrew" format="2">
  <unicode hex="05B2"/>
  <anchor x="651" y="0" name="_bottom"/>
  <outline>
    <contour>
      <point x="235" y="-328" type="line"/>
      <point x="756" y="-328" type="line"/>
      <point x="756" y="-176" type="line"/>
      <point x="235" y="-176" type="line"/>
    </contour>
    <contour>
      <point x="960" y="-647" type="curve" smooth="yes"/>
      <point x="1025" y="-647"/>
      <point x="1072" y="-604"/>
      <point x="1072" y="-547" type="curve" smooth="yes"/>
      <point x="1072" y="-489"/>
      <point x="1025" y="-447"/>
      <point x="960" y="-447" type="curve" smooth="yes"/>
      <point x="895" y="-447"/>
      <point x="846" y="-489"/>
      <point x="846" y="-547" type="curve" smooth="yes"/>
      <point x="846" y="-604"/>
      <point x="895" y="-647"/>
    </contour>
    <contour>
      <point x="960" y="-353" type="curve" smooth="yes"/>
      <point x="1025" y="-353"/>
      <point x="1072" y="-311"/>
      <point x="1072" y="-253" type="curve" smooth="yes"/>
      <point x="1072" y="-195"/>
      <point x="1025" y="-153"/>
      <point x="960" y="-153" type="curve" smooth="yes"/>
      <point x="894" y="-153"/>
      <point x="846" y="-195"/>
      <point x="846" y="-253" type="curve" smooth="yes"/>
      <point x="846" y="-311"/>
      <point x="895" y="-353"/>
    </contour>
  </outline>
</glyph>
<glyph name="hatafqamatshebrew" format="2">
  <unicode hex="05B3"/>
  <anchor x="651" y="0" name="_bottom"/>
  <outline>
    <contour>
      <point x="493" y="-650" type="curve" smooth="yes"/>
      <point x="559" y="-650"/>
      <point x="606" y="-607"/>
      <point x="606" y="-550" type="curve" smooth="yes"/>
      <point x="606" y="-490"/>
      <point x="550" y="-476"/>
      <point x="538" y="-328" type="curve"/>
      <point x="755" y="-328" type="line"/>
      <point x="755" y="-176" type="line"/>
      <point x="234" y="-176" type="line"/>
      <point x="234" y="-328" type="line"/>
      <point x="448" y="-328" type="line"/>
      <point x="438" y="-476"/>
      <point x="381" y="-490"/>
      <point x="381" y="-550" type="curve" smooth="yes"/>
      <point x="381" y="-608"/>
      <point x="430" y="-650"/>
    </contour>
    <contour>
      <point x="960" y="-647" type="curve" smooth="yes"/>
      <point x="1025" y="-647"/>
      <point x="1072" y="-604"/>
      <point x="1072" y="-547" type="curve" smooth="yes"/>
      <point x="1072" y="-489"/>
      <point x="1025" y="-447"/>
      <point x="960" y="-447" type="curve" smooth="yes"/>
      <point x="895" y="-447"/>
      <point x="846" y="-489"/>
      <point x="846" y="-547" type="curve" smooth="yes"/>
      <point x="846" y="-604"/>
      <point x="895" y="-647"/>
    </contour>
    <contour>
      <point x="960" y="-353" type="curve" smooth="yes"/>
      <point x="1025" y="-353"/>
      <point x="1072" y="-311"/>
      <point x="1072" y="-253" type="curve" smooth="yes"/>
      <point x="1072" y="-195"/>
      <point x="1025" y="-153"/>
      <point x="960" y="-153" type="curve" smooth="yes"/>
      <point x="894" y="-153"/>
      <point x="846" y="-195"/>
      <point x="846" y="-253" type="curve" smooth="yes"/>
      <point x="846" y="-311"/>
      <point x="895" y="-353"/>
    </contour>
  </outline>
</glyph>
<glyph name="tserehebrew" format="2">
  <unicode hex="05B5"/>
  <anchor x="651" y="0" name="_bottom"/>
  <outline>
    <contour>
      <point x="802" y="-353" type="curve" smooth="yes"/>
      <point x="867" y="-353"/>
      <point x="914" y="-311"/>
      <point x="914" y="-253" type="curve" smooth="yes"/>
      <point x="914" y="-195"/>
      <point x="867" y="-153"/>
      <point x="802" y="-153" type="curve" smooth="yes"/>
      <point x="736" y="-153"/>
      <point x="688" y="-195"/>
      <point x="688" y="-253" type="curve" smooth="yes"/>
      <point x="688" y="-312"/>
      <point x="737" y="-353"/>
    </contour>
    <contour>
      <point x="501" y="-353" type="curve" smooth="yes"/>
      <point x="566" y="-353"/>
      <point x="613" y="-311"/>
      <point x="613" y="-253" type="curve" smooth="yes"/>
      <point x="613" y="-195"/>
      <point x="566" y="-153"/>
      <point x="501" y="-153" type="curve" smooth="yes"/>
      <point x="435" y="-153"/>
      <point x="387" y="-195"/>
      <point x="387" y="-253" type="curve" smooth="yes"/>
      <point x="387" y="-312"/>
      <point x="436" y="-353"/>
    </contour>
  </outline>
</glyph>
<glyph name="patahhebrew" format="2">
  <unicode hex="05B7"/>
  <anchor x="651" y="0" name="_bottom"/>
  <outline>
    <contour>
      <point x="394" y="-328" type="line"/>
      <point x="909" y="-328" type="line"/>
      <point x="909" y="-176" type="line"/>
      <point x="394" y="-176" type="line"/>
    </contour>
  </outline>
</glyph>
<glyph name="qubutshebrew" format="2">
  <unicode hex="05BB"/>
  <anchor x="651" y="0" name="_bottom"/>
  <outline>
    <contour>
      <point x="651" y="-353" type="curve" smooth="yes"/>
      <point x="717" y="-353"/>
      <point x="764" y="-311"/>
      <point x="764" y="-253" type="curve" smooth="yes"/>
      <point x="764" y="-195"/>
      <point x="717" y="-153"/>
      <point x="651" y="-153" type="curve" smooth="yes"/>
      <point x="586" y="-153"/>
      <point x="538" y="-195"/>
      <point x="538" y="-253" type="curve" smooth="yes"/>
      <point x="538" y="-312"/>
      <point x="587" y="-353"/>
    </contour>
    <contour>
      <point x="950" y="-862" type="curve" smooth="yes"/>
      <point x="1015" y="-862"/>
      <point x="1062" y="-821"/>
      <point x="1062" y="-763" type="curve" smooth="yes"/>
      <point x="1062" y="-705"/>
      <point x="1015" y="-662"/>
      <point x="950" y="-662" type="curve" smooth="yes"/>
      <point x="885" y="-662"/>
      <point x="836" y="-705"/>
      <point x="836" y="-763" type="curve" smooth="yes"/>
      <point x="836" y="-820"/>
      <point x="885" y="-862"/>
    </contour>
    <contour>
      <point x="801" y="-607" type="curve" smooth="yes"/>
      <point x="865" y="-607"/>
      <point x="913" y="-566"/>
      <point x="913" y="-508" type="curve" smooth="yes"/>
      <point x="913" y="-453"/>
      <point x="865" y="-408"/>
      <point x="801" y="-408" type="curve" smooth="yes"/>
      <point x="735" y="-408"/>
      <point x="687" y="-450"/>
      <point x="687" y="-508" type="curve" smooth="yes"/>
      <point x="687" y="-567"/>
      <point x="736" y="-607"/>
    </contour>
  </outline>
</glyph>
<glyph name="maqafhebrew" format="2">
  <advance width="628.075"/>
  <unicode hex="05BE"/>
  <outline>
    <contour>
      <point x="568" y="918" type="line"/>
      <point x="568" y="1210" type="line"/>
      <point x="60" y="1210" type="line"/>
      <point x="60" y="918" type="line"/>
    </contour>
  </outline>
</glyph>
<glyph name="rafehebrew" format="2">
  <unicode hex="05BF"/>
  <anchor x="526" y="1210" name="_top"/>
  <outline>
    <contour>
      <point x="211" y="1372" type="line"/>
      <point x="842" y="1372" type="line"/>
      <point x="842" y="1557" type="line"/>
      <point x="211" y="1557" type="line"/>
    </contour>
  </outline>
</glyph>
<glyph name="shindothebrew" format="2">
  <unicode hex="05C1"/>
  <anchor x="0" y="1210" name="_topright"/>
  <outline>
    <contour>
      <point x="1471" y="1363" type="curve" smooth="yes"/>
      <point x="1538" y="1363"/>
      <point x="1584" y="1404"/>
      <point x="1584" y="1462" type="curve" smooth="yes"/>
      <point x="1584" y="1520"/>
      <point x="1538" y="1563"/>
      <point x="1471" y="1563" type="curve" smooth="yes"/>
      <point x="1407" y="1563"/>
      <point x="1357" y="1520"/>
      <point x="1357" y="1462" type="curve" smooth="yes"/>
      <point x="1357" y="1404"/>
      <point x="1407" y="1363"/>
    </contour>
  </outline>
</glyph>
<glyph name="sindothebrew" format="2">
  <unicode hex="05C2"/>
  <anchor x="0" y="1210" name="_topleft"/>
  <outline>
    <contour>
      <point x="309" y="1363" type="curve" smooth="yes"/>
      <point x="375" y="1363"/>
      <point x="423" y="1404"/>
      <point x="423" y="1462" type="curve" smooth="yes"/>
      <point x="423" y="1520"/>
      <point x="375" y="1563"/>
      <point x="309" y="1563" type="curve" smooth="yes"/>
      <point x="245" y="1563"/>
      <point x="196" y="1520"/>
      <point x="196" y="1462" type="curve" smooth="yes"/>
      <point x="196" y="1404"/>
      <point x="245" y="1363"/>
    </contour>
  </outline>
</glyph>
<glyph name="qamatsqatanhebrew" format="2">
  <unicode hex="05C7"/>
  <anchor x="651" y="0" name="_bottom"/>
  <outline>
    <contour>
      <point x="651" y="-652" type="curve" smooth="yes"/>
      <point x="717" y="-652"/>
      <point x="763" y="-610"/>
      <point x="763" y="-553" type="curve" smooth="yes"/>
      <point x="763" y="-504"/>
      <point x="728" y="-484"/>
      <point x="707" y="-420" type="curve" smooth="yes"/>
      <point x="700" y="-399"/>
      <point x="695" y="-351"/>
      <point x="695" y="-328" type="curve"/>
      <point x="875" y="-328" type="line"/>
      <point x="875" y="-176" type="line"/>
      <point x="428" y="-176" type="line"/>
      <point x="428" y="-328" type="line"/>
      <point x="606" y="-328" type="line"/>
      <point x="606" y="-357"/>
      <point x="602" y="-401"/>
      <point x="596" y="-420" type="curve" smooth="yes"/>
      <point x="576" y="-484"/>
      <point x="539" y="-503"/>
      <point x="539" y="-553" type="curve" smooth="yes"/>
      <point x="539" y="-611"/>
      <point x="587" y="-652"/>
    </contour>
  </outline>
</glyph>
<glyph name="dalethebrew" format="2">
  <advance width="1207.3"/>
  <unicode hex="05D3"/>
  <anchor x="731" y="0" name="bottom"/>
  <anchor x="275" y="603" name="center"/>
  <anchor x="598" y="1210" name="top"/>
  <anchor x="-1" y="1210" name="topleft"/>
  <outline>
    <contour>
      <point x="60" y="1210" type="line"/>
      <point x="60" y="918" type="line"/>
      <point x="541" y="918" type="line"/>
      <point x="541" y="0" type="line"/>
      <point x="920" y="0" type="line"/>
      <point x="920" y="918" type="line"/>
      <point x="1137" y="918" type="line"/>
      <point x="1137" y="1210" type="line"/>
    </contour>
  </outline>
</glyph>
<glyph name="vavhebrew" format="2">
  <advance width="686.425"/>
  <unicode hex="05D5"/>
  <anchor x="345" y="0" name="bottom"/>
  <anchor x="1" y="603" name="center"/>
  <anchor x="312" y="1210" name="top"/>
  <anchor x="303" y="1210" name="topleft"/>
  <outline>
    <contour>
      <point x="153" y="0" type="line"/>
      <point x="532" y="0" type="line"/>
      <point x="532" y="1210" type="line"/>
      <point x="64" y="1210" type="line"/>
      <point x="64" y="918" type="line"/>
      <point x="153" y="918" type="line"/>
    </contour>
  </outline>
</glyph>
<glyph name="zayinhebrew" format="2">
  <advance width="832.4"/>
  <unicode hex="05D6"/>
  <anchor x="440" y="0" name="bottom"/>
  <anchor x="687" y="603" name="center"/>
  <anchor x="428" y="1210" name="top"/>
  <anchor x="-1" y="1210" name="topleft"/>
  <outline>
    <contour>
      <point x="244" y="0" type="line"/>
      <point x="632" y="0" type="line"/>
      <point x="492" y="918" type="line"/>
      <point x="776" y="918" type="line"/>
      <point x="776" y="1210" type="line"/>
      <point x="63" y="1210" type="line"/>
      <point x="63" y="927" type="line"/>
      <point x="123" y="907" type="line"/>
    </contour>
  </outline>
</glyph>
<glyph name="tethebrew" format="2">
  <advance width="1331.825"/>
  <unicode hex="05D8"/>
  <anchor x="704" y="0" name="bottom"/>
  <anchor x="703" y="603" name="center"/>
  <anchor x="675" y="1198" name="top"/>
  <anchor x="27" y="1210" name="topleft"/>
  <outline>
    <contour>
      <point x="704" y="-25" type="curve" smooth="yes"/>
      <point x="1033" y="-25"/>
      <point x="1252" y="191"/>
      <point x="1252" y="514" type="curve" smooth="yes"/>
      <point x="1252" y="816" type="line" smooth="yes"/>
      <point x="1252" y="1072"/>
      <point x="1115" y="1225"/>
      <point x="889" y="1225" type="curve" smooth="yes"/>
      <point x="809" y="1225"/>
      <point x="703" y="1196"/>
      <point x="629" y="1155" type="curve"/>
      <point x="660" y="915" type="line"/>
      <point x="698" y="919"/>
      <point x="728" y="920"/>
      <point x="750" y="920" type="curve" smooth="yes"/>
      <point x="835" y="920"/>
      <point x="873" y="878"/>
      <point x="873" y="786" type="curve" smooth="yes"/>
      <point x="873" y="466" type="line" smooth="yes"/>
      <point x="873" y="344"/>
      <point x="805" y="262"/>
      <point x="703" y="262" type="curve" smooth="yes"/>
      <point x="602" y="262"/>
      <point x="533" y="344"/>
      <point x="533" y="466" type="curve" smooth="yes"/>
      <point x="533" y="1210" type="line"/>
      <point x="155" y="1210" type="line"/>
      <point x="155" y="514" type="line"/>
      <point x="155" y="191"/>
      <point x="374" y="-25"/>
    </contour>
  </outline>
</glyph>
<glyph name="lamedhebrew" format="2">
  <advance width="1146.275"/>
  <unicode hex="05DC"/>
  <anchor x="513" y="0" name="bottom"/>
  <anchor x="284" y="647" name="center"/>
  <anchor x="808" y="1210" name="top"/>
  <anchor x="-86" y="1378" name="topleft"/>
  <outline>
    <contour>
      <point x="56" y="918" type="line"/>
      <point x="951" y="918" type="line"/>
      <point x="951" y="1210" type="line"/>
      <point x="435" y="1210" type="line"/>
      <point x="435" y="1536" type="line"/>
      <point x="56" y="1536" type="line"/>
    </contour>
    <contour>
      <point x="1079" y="967" type="line"/>
      <point x="1079" y="1210" type="line"/>
      <point x="794" y="1210" type="line"/>
      <point x="300" y="0" type="line"/>
      <point x="699" y="0" type="line"/>
    </contour>
  </outline>
</glyph>
<glyph name="finalmemhebrew" format="2">
  <advance width="1373.95"/>
  <unicode hex="05DD"/>
  <anchor x="688" y="0" name="bottom"/>
  <anchor x="688" y="603" name="center"/>
  <anchor x="688" y="1210" name="top"/>
  <anchor x="28" y="1210" name="topleft"/>
  <outline>
    <contour>
      <point x="156" y="0" type="line"/>
      <point x="1219" y="0" type="line"/>
      <point x="1219" y="1210" type="line"/>
      <point x="156" y="1210" type="line"/>
    </contour>
    <contour>
      <point x="534" y="293" type="line"/>
      <point x="534" y="918" type="line"/>
      <point x="841" y="918" type="line"/>
      <point x="841" y="293" type="line"/>
    </contour>
  </outline>
</glyph>
<glyph name="ayinhebrew" format="2">
  <advance width="1332.875"/>
  <unicode hex="05E2"/>
  <anchor x="657" y="0" name="bottom"/>
  <anchor x="667" y="996" name="center"/>
  <anchor x="637" y="1210" name="top"/>
  <anchor x="20" y="1210" name="topleft"/>
  <outline>
    <contour>
      <point x="564" y="-32" type="curve" smooth="yes"/>
      <point x="930" y="-32"/>
      <point x="1178" y="161"/>
      <point x="1178" y="532" type="curve" smooth="yes"/>
      <point x="1178" y="1210" type="line"/>
      <point x="799" y="1210" type="line"/>
      <point x="799" y="512" type="line" smooth="yes"/>
      <point x="799" y="339"/>
      <point x="689" y="251"/>
      <point x="506" y="251" type="curve" smooth="yes"/>
      <point x="405" y="252"/>
      <point x="281" y="279"/>
      <point x="135" y="334" type="curve"/>
      <point x="59" y="59" type="line"/>
      <point x="246" y="-10"/>
      <point x="415" y="-32"/>
    </contour>
    <contour>
      <point x="107" y="1210" type="line"/>
      <point x="286" y="417" type="line" smooth="yes"/>
      <point x="308" y="321"/>
      <point x="397" y="229"/>
      <point x="471" y="206" type="curve"/>
      <point x="752" y="206" type="line"/>
      <point x="693" y="248"/>
      <point x="672" y="309"/>
      <point x="657" y="375" type="curve" smooth="yes"/>
      <point x="488" y="1210" type="line"/>
    </contour>
  </outline>
</glyph>
<glyph name="finalpehebrew" format="2">
  <advance width="1320.825"/>
  <unicode hex="05E3"/>
  <anchor x="313" y="435" name="bottom"/>
  <anchor x="666" y="756" name="center"/>
  <anchor x="648" y="1210" name="top"/>
  <anchor x="61" y="1210" name="topleft"/>
  <outline>
    <contour>
      <point x="1166" y="1210" type="line"/>
      <point x="126" y="1210" type="line"/>
      <point x="126" y="918" type="line"/>
      <point x="242" y="918" type="line"/>
      <point x="197" y="841"/>
      <point x="174" y="704"/>
      <point x="173" y="579" type="curve" smooth="yes"/>
      <point x="173" y="445" type="line"/>
      <point x="282" y="373"/>
      <point x="473" y="346"/>
      <point x="618" y="384" type="curve"/>
      <point x="618" y="622" type="line"/>
      <point x="604" y="620"/>
      <point x="566" y="622"/>
      <point x="538" y="627" type="curve"/>
      <point x="538" y="710" type="line" smooth="yes"/>
      <point x="538" y="775"/>
      <point x="544" y="841"/>
      <point x="564" y="918" type="curve"/>
      <point x="792" y="918" type="line"/>
      <point x="792" y="-416" type="line"/>
      <point x="1166" y="-416" type="line"/>
    </contour>
  </outline>
</glyph>
<glyph name="pehebrew" format="2">
  <advance width="1397.7"/>
  <unicode hex="05E4"/>
  <anchor x="680" y="0" name="bottom"/>
  <anchor x="711" y="778" name="center"/>
  <anchor x="668" y="1210" name="top"/>
  <anchor x="29" y="1210" name="topleft"/>
  <outline>
    <contour>
      <point x="629" y="-29" type="curve" smooth="yes"/>
      <point x="960" y="-30"/>
      <point x="1243" y="129"/>
      <point x="1243" y="543" type="curve" smooth="yes"/>
      <point x="1243" y="1210" type="line"/>
      <point x="126" y="1210" type="line"/>
      <point x="126" y="918" type="line"/>
      <point x="242" y="918" type="line"/>
      <point x="197" y="841"/>
      <point x="174" y="724"/>
      <point x="174" y="599" type="curve" smooth="yes"/>
      <point x="174" y="508" type="line"/>
      <point x="282" y="436"/>
      <point x="474" y="408"/>
      <point x="618" y="446" type="curve"/>
      <point x="618" y="685" type="line"/>
      <point x="605" y="682"/>
      <point x="566" y="685"/>
      <point x="538" y="689" type="curve"/>
      <point x="538" y="731" type="line" smooth="yes"/>
      <point x="538" y="796"/>
      <point x="544" y="841"/>
      <point x="565" y="918" type="curve"/>
      <point x="864" y="918" type="line"/>
      <point x="864" y="493" type="line" smooth="yes"/>
      <point x="864" y="343"/>
      <point x="779" y="269"/>
      <point x="600" y="268" type="curve" smooth="yes"/>
      <point x="511" y="268"/>
      <point x="363" y="288"/>
      <point x="224" y="326" type="curve"/>
      <point x="155" y="51" type="line"/>
      <point x="300" y="-1"/>
      <point x="485" y="-29"/>
    </contour>
  </outline>
</glyph>
<glyph name="tsadihebrew" format="2">
  <advance width="1250.275"/>
  <unicode hex="05E6"/>
  <anchor x="635" y="0" name="bottom"/>
  <anchor x="278" y="462" name="center"/>
  <anchor x="618" y="1210" name="top"/>
  <anchor x="36" y="1210" name="topleft"/>
  <outline>
    <contour>
      <point x="127" y="0" type="line"/>
      <point x="1113" y="0" type="line"/>
      <point x="1113" y="165" type="line"/>
      <point x="734" y="714" type="line"/>
      <point x="434" y="1210" type="line"/>
      <point x="13" y="1210" type="line"/>
      <point x="628" y="293" type="line"/>
      <point x="127" y="293" type="line"/>
    </contour>
    <contour>
      <point x="818" y="425" type="line"/>
      <point x="1210" y="1210" type="line"/>
      <point x="787" y="1210" type="line"/>
      <point x="586" y="725" type="line"/>
    </contour>
  </outline>
</glyph>
<glyph name="shinhebrew" format="2">
  <advance width="1848.9"/>
  <unicode hex="05E9"/>
  <anchor x="920" y="0" name="bottom"/>
  <anchor x="1209" y="603" name="center"/>
  <anchor x="918" y="1210" name="top"/>
  <anchor x="14" y="1210" name="topleft"/>
  <anchor x="22" y="1210" name="topright"/>
  <outline>
    <contour>
      <point x="520" y="1210" type="line"/>
      <point x="155" y="1210" type="line"/>
      <point x="155" y="126" type="line"/>
      <point x="386" y="15"/>
      <point x="651" y="-41"/>
      <point x="884" y="-41" type="curve" smooth="yes"/>
      <point x="1328" y="-41"/>
      <point x="1694" y="161"/>
      <point x="1694" y="578" type="curve" smooth="yes"/>
      <point x="1694" y="1210" type="line"/>
      <point x="1328" y="1210" type="line"/>
      <point x="1328" y="622" type="line" smooth="yes"/>
      <point x="1328" y="361"/>
      <point x="1142" y="252"/>
      <point x="869" y="252" type="curve" smooth="yes"/>
      <point x="763" y="252"/>
      <point x="625" y="284"/>
      <point x="520" y="329" type="curve"/>
    </contour>
    <contour>
      <point x="712" y="411" type="curve"/>
      <point x="1018" y="413" type="line"/>
      <point x="1066" y="476"/>
      <point x="1101" y="617"/>
      <point x="1101" y="752" type="curve" smooth="yes"/>
      <point x="1101" y="1210" type="line"/>
      <point x="735" y="1210" type="line"/>
      <point x="735" y="669" type="line" smooth="yes"/>
      <point x="735" y="567"/>
      <point x="725" y="460"/>
    </contour>
  </outline>
</glyph>
<glyph name="gershayimhebrew" format="2">
  <advance width="1067.275"/>
  <unicode hex="05F4"/>
  <outline>
    <contour>
      <point x="282" y="842" type="line"/>
      <point x="407" y="946"/>
      <point x="497" y="1130"/>
      <point x="498" y="1285" type="curve"/>
      <point x="499" y="1462" type="line"/>
      <point x="163" y="1462" type="line"/>
      <point x="163" y="1249" type="line"/>
      <point x="163" y="1150"/>
      <point x="117" y="1016"/>
      <point x="54" y="927" type="curve"/>
    </contour>
    <contour>
      <point x="771" y="842" type="line"/>
      <point x="896" y="946"/>
      <point x="986" y="1130"/>
      <point x="987" y="1285" type="curve"/>
      <point x="989" y="1462" type="line"/>
      <point x="652" y="1462" type="line"/>
      <point x="652" y="1249" type="line"/>
      <point x="652" y="1150"/>
      <point x="607" y="1016"/>
      <point x="543" y="927" type="curve"/>
    </contour>
  </outline>
</glyph>
<glyph name="Germandbls" format="2">
  <advance width="1434.325"/>
  <unicode hex="1E9E"/>
  <outline>
    <contour>
      <point x="421" y="0" type="line"/>
      <point x="421" y="955" type="line"/>
      <point x="59" y="955" type="line"/>
      <point x="59" y="0" type="line"/>
    </contour>
    <contour>
      <point x="59" y="953" type="curve"/>
      <point x="421" y="953" type="line"/>
      <point x="421" y="1148"/>
      <point x="514" y="1187"/>
      <point x="604" y="1187" type="curve" smooth="yes"/>
      <point x="707" y="1187"/>
      <point x="785" y="1153"/>
      <point x="855" y="1104" type="curve"/>
      <point x="616" y="843" type="line"/>
      <point x="616" y="713" type="line"/>
      <point x="869" y="713" type="line"/>
      <point x="1308" y="1213" type="line"/>
      <point x="1075" y="1382"/>
      <point x="865" y="1477"/>
      <point x="604" y="1477" type="curve" smooth="yes"/>
      <point x="242" y="1477"/>
      <point x="59" y="1300"/>
    </contour>
    <contour>
      <point x="585" y="314" type="curve"/>
      <point x="483" y="44" type="line"/>
      <point x="562" y="10"/>
      <point x="674" y="-21"/>
      <point x="847" y="-21" type="curve" smooth="yes"/>
      <point x="1116" y="-21"/>
      <point x="1351" y="123"/>
      <point x="1351" y="426" type="curve" smooth="yes"/>
      <point x="1351" y="715"/>
      <point x="1150" y="864"/>
      <point x="808" y="864" type="curve" smooth="yes"/>
      <point x="616" y="838" type="line"/>
      <point x="616" y="634" type="line"/>
      <point x="743" y="634" type="line" smooth="yes"/>
      <point x="902" y="634"/>
      <point x="991" y="591"/>
      <point x="991" y="427" type="curve" smooth="yes"/>
      <point x="991" y="327"/>
      <point x="919" y="269"/>
      <point x="793" y="269" type="curve" smooth="yes"/>
      <point x="704" y="269"/>
      <point x="622" y="299"/>
    </contour>
  </outline>
</glyph>
<glyph name="afii57598" format="2">
  <unicode hex="200D"/>
  <outline>
    <contour>
      <point x="-706" y="1156" type="line"/>
      <point x="-706" y="-200" type="line"/>
      <point x="-446" y="-200" type="line"/>
      <point x="-446" y="1156" type="line"/>
    </contour>
    <contour>
      <point x="-417" y="864" type="line"/>
      <point x="-227" y="1044" type="line"/>
      <point x="-738" y="1569" type="line"/>
      <point x="-928" y="1388" type="line"/>
    </contour>
    <contour>
      <point x="-928" y="1044" type="line"/>
      <point x="-738" y="864" type="line"/>
      <point x="-227" y="1388" type="line"/>
      <point x="-417" y="1569" type="line"/>
    </contour>
  </outline>
</glyph>
<glyph name="quoteleft" format="2">
  <advance width="526.725"/>
  <unicode hex="2018"/>
  <outline>
    <contour>
      <point x="109" y="1201" type="curve"/>
      <point x="109" y="1029" type="line"/>
      <point x="371" y="1029" type="line"/>
      <point x="371" y="1200" type="line"/>
      <point x="371" y="1335"/>
      <point x="415" y="1423"/>
      <point x="455" y="1496" type="curve"/>
      <point x="298" y="1581" type="line"/>
      <point x="204" y="1497"/>
      <point x="109" y="1338"/>
    </contour>
  </outline>
</glyph>
<glyph name="quoteright" format="2">
  <advance width="512.025"/>
  <unicode hex="2019"/>
  <anchor x="61" y="1536" name="_caron"/>
  <outline>
    <contour>
      <point x="411" y="1362" type="curve" smooth="yes"/>
      <point x="411" y="1536" type="line"/>
      <point x="150" y="1536" type="line"/>
      <point x="150" y="1364" type="line" smooth="yes"/>
      <point x="150" y="1229"/>
      <point x="106" y="1141"/>
      <point x="66" y="1067" type="curve"/>
      <point x="223" y="983" type="line"/>
      <point x="317" y="1067"/>
      <point x="411" y="1226"/>
    </contour>
  </outline>
</glyph>
<glyph name="quotesinglbase" format="2">
  <advance width="577.225"/>
  <unicode hex="201A"/>
  <outline>
    <contour>
      <point x="432" y="57" type="curve"/>
      <point x="434" y="261" type="line"/>
      <point x="159" y="261" type="line"/>
      <point x="159" y="59" type="line"/>
      <point x="159" y="-77"/>
      <point x="127" y="-164"/>
      <point x="87" y="-238" type="curve"/>
      <point x="243" y="-322" type="line"/>
      <point x="338" y="-238"/>
      <point x="432" y="-80"/>
    </contour>
  </outline>
</glyph>
<glyph name="guilsinglleft" format="2">
  <advance width="654.875"/>
  <unicode hex="2039"/>
  <outline>
    <contour>
      <point x="366" y="502" type="line"/>
      <point x="596" y="908" type="line"/>
      <point x="379" y="908" type="line"/>
      <point x="108" y="516" type="line"/>
      <point x="108" y="503" type="line"/>
    </contour>
    <contour>
      <point x="596" y="106" type="line"/>
      <point x="366" y="511" type="line"/>
      <point x="108" y="510" type="line"/>
      <point x="108" y="497" type="line"/>
      <point x="379" y="106" type="line"/>
    </contour>
  </outline>
</glyph>
<glyph name="sheqel" format="2">
  <advance width="2029.75"/>
  <unicode hex="20AA"/>
  <outline>
    <contour>
      <point x="603" y="0" type="line"/>
      <point x="1197" y="0" type="line" smooth="yes"/>
      <point x="1635" y="0"/>
      <point x="1878" y="215"/>
      <point x="1875" y="585" type="curve"/>
      <point x="1875" y="1212" type="line"/>
      <point x="1529" y="1212" type="line"/>
      <point x="1529" y="576" type="line" smooth="yes"/>
      <point x="1529" y="393"/>
      <point x="1386" y="301"/>
      <point x="1207" y="302" type="curve" smooth="yes"/>
      <point x="949" y="303" type="line"/>
      <point x="949" y="736" type="line"/>
      <point x="603" y="736" type="line"/>
    </contour>
    <contour>
      <point x="124" y="0" type="line"/>
      <point x="471" y="0" type="line"/>
      <point x="471" y="910" type="line"/>
      <point x="1050" y="910" type="line"/>
      <point x="1050" y="747" type="line" smooth="yes"/>
      <point x="1050" y="679"/>
      <point x="1038" y="569"/>
      <point x="1022" y="487" type="curve"/>
      <point x="1040" y="473" type="line"/>
      <point x="1340" y="521" type="line"/>
      <point x="1378" y="598"/>
      <point x="1396" y="724"/>
      <point x="1396" y="785" type="curve" smooth="yes"/>
      <point x="1396" y="1212" type="line"/>
      <point x="124" y="1212" type="line"/>
    </contour>
  </outline>
</glyph>
<glyph name="Euro" format="2">
  <advance width="1192"/>
  <unicode hex="20AC"/>
  <outline>
    <contour>
      <point x="962" y="282"/>
      <point x="901" y="282" type="curve" smooth="yes"/>
      <point x="737" y="282"/>
      <point x="625" y="316"/>
      <point x="625" y="527" type="curve"/>
      <point x="625" y="880" type="line"/>
      <point x="625" y="1099"/>
      <point x="727" y="1173"/>
      <point x="911" y="1173" type="curve" smooth="yes"/>
      <point x="965" y="1173"/>
      <point x="1027" y="1160"/>
      <point x="1072" y="1143" type="curve"/>
      <point x="1119" y="1444" type="line"/>
      <point x="1044" y="1463"/>
      <point x="964" y="1475"/>
      <point x="887" y="1475" type="curve" smooth="yes"/>
      <point x="509" y="1475"/>
      <point x="248" y="1267"/>
      <point x="248" y="878" type="curve"/>
      <point x="248" y="527" type="line"/>
      <point x="248" y="166"/>
      <point x="503" y="-19"/>
      <point x="852" y="-19" type="curve" smooth="yes"/>
      <point x="945" y="-19"/>
      <point x="1036" y="-8"/>
      <point x="1119" y="11" type="curve"/>
      <point x="1072" y="311" type="line"/>
      <point x="1020" y="290"/>
    </contour>
    <contour>
      <point x="925" y="786" type="line"/>
      <point x="925" y="956" type="line"/>
      <point x="86" y="956" type="line"/>
      <point x="86" y="786" type="line"/>
    </contour>
    <contour>
      <point x="925" y="498" type="line"/>
      <point x="925" y="670" type="line"/>
      <point x="86" y="670" type="line"/>
      <point x="86" y="498" type="line"/>
    </contour>
  </outline>
</glyph>
<glyph name="minus" format="2">
  <advance width="1116.175"/>
  <unicode hex="2212"/>
  <outline>
    <contour>
      <point x="1015" y="557" type="line"/>
      <point x="1015" y="853" type="line"/>
      <point x="133" y="853" type="line"/>
      <point x="133" y="557" type="line"/>
    </contour>
  </outline>
</glyph>
<glyph name="longst" format="2">
  <advance width="1367.925"/>
  <unicode hex="FB05"/>
  <outline>
    <contour>
      <point x="422" y="822" type="line"/>
      <point x="422" y="1082" type="line"/>
      <point x="8" y="1082" type="line"/>
      <point x="8" y="822" type="line"/>
    </contour>
    <contour>
      <point x="837" y="1557"/>
      <point x="601" y="1557" type="curve" smooth="yes"/>
      <point x="324" y="1557"/>
      <point x="162" y="1418"/>
      <point x="162" y="1162" type="curve" smooth="yes"/>
      <point x="162" y="0" type="line"/>
      <point x="523" y="0" type="line"/>
      <point x="523" y="1162" type="line" smooth="yes"/>
      <point x="523" y="1230"/>
      <point x="567" y="1267"/>
      <point x="647" y="1267" type="curve" smooth="yes"/>
      <point x="729" y="1267"/>
      <point x="785" y="1252"/>
      <point x="805" y="1245" type="curve"/>
      <point x="805" y="1240" type="line"/>
      <point x="1165" y="1240" type="line"/>
      <point x="1165" y="1445" type="line"/>
      <point x="1027" y="1488"/>
    </contour>
    <component base="t" xOffset="662"/>
  </outline>
</glyph>
<glyph name="ayinaltonehebrew" format="2">
  <advance width="1362.2"/>
  <unicode hex="FB20"/>
  <anchor x="614" y="0" name="bottom"/>
  <anchor x="683" y="969" name="center"/>
  <anchor x="659" y="1210" name="top"/>
  <anchor x="0" y="1210" name="topleft"/>
  <outline>
    <contour>
      <point x="564" y="-40" type="curve" smooth="yes"/>
      <point x="930" y="-40"/>
      <point x="1163" y="163"/>
      <point x="1179" y="534" type="curve" smooth="yes"/>
      <point x="1207" y="1210" type="line"/>
      <point x="828" y="1210" type="line"/>
      <point x="799" y="514" type="line" smooth="yes"/>
      <point x="794" y="340"/>
      <point x="689" y="252"/>
      <point x="506" y="252" type="curve" smooth="yes"/>
      <point x="405" y="253"/>
      <point x="281" y="281"/>
      <point x="135" y="336" type="curve"/>
      <point x="59" y="61" type="line"/>
      <point x="246" y="-7"/>
      <point x="415" y="-40"/>
    </contour>
    <contour>
      <point x="128" y="1210" type="line"/>
      <point x="308" y="417" type="line" smooth="yes"/>
      <point x="329" y="321"/>
      <point x="419" y="229"/>
      <point x="492" y="206" type="curve"/>
      <point x="773" y="206" type="line"/>
      <point x="715" y="249"/>
      <point x="693" y="308"/>
      <point x="679" y="375" type="curve" smooth="yes"/>
      <point x="509" y="1210" type="line"/>
    </contour>
  </outline>
</glyph>
<glyph name="widehehebrew" format="2">
  <advance width="1677.85"/>
  <unicode hex="FB23"/>
  <anchor x="845" y="0" name="bottom"/>
  <anchor x="845" y="603" name="center"/>
  <anchor x="814" y="1210" name="top"/>
  <anchor x="16" y="1210" name="topleft"/>
  <outline>
    <contour>
      <point x="137" y="0" type="line"/>
      <point x="508" y="0" type="line"/>
      <point x="508" y="398" type="line" smooth="yes"/>
      <point x="508" y="480"/>
      <point x="531" y="614"/>
      <point x="536" y="657" type="curve"/>
      <point x="519" y="672" type="line"/>
      <point x="181" y="625" type="line"/>
      <point x="184" y="633"/>
      <point x="137" y="528"/>
      <point x="137" y="399" type="curve" smooth="yes"/>
    </contour>
    <contour>
      <point x="1176" y="0" type="line"/>
      <point x="1555" y="0" type="line"/>
      <point x="1555" y="760" type="line" smooth="yes"/>
      <point x="1555" y="1042"/>
      <point x="1368" y="1210"/>
      <point x="1051" y="1210" type="curve" smooth="yes"/>
      <point x="143" y="1210" type="line"/>
      <point x="143" y="918" type="line"/>
      <point x="1021" y="918" type="line" smooth="yes"/>
      <point x="1124" y="918"/>
      <point x="1176" y="871"/>
      <point x="1176" y="777" type="curve" smooth="yes"/>
    </contour>
  </outline>
</glyph>
<glyph name="finalwidememhebrew" format="2">
  <advance width="1848.35"/>
  <unicode hex="FB26"/>
  <anchor x="927" y="0" name="bottom"/>
  <anchor x="927" y="603" name="center"/>
  <anchor x="927" y="1210" name="top"/>
  <anchor x="41" y="1210" name="topleft"/>
  <outline>
    <contour>
      <point x="168" y="0" type="line"/>
      <point x="1687" y="0" type="line"/>
      <point x="1687" y="1210" type="line"/>
      <point x="168" y="1210" type="line"/>
    </contour>
    <contour>
      <point x="547" y="293" type="line"/>
      <point x="547" y="918" type="line"/>
      <point x="1308" y="918" type="line"/>
      <point x="1308" y="293" type="line"/>
    </contour>
  </outline>
</glyph>
<glyph name="widereshhebrew" format="2">
  <advance width="1364.675"/>
  <unicode hex="FB27"/>
  <anchor x="1054" y="0" name="bottom"/>
  <anchor x="355" y="603" name="center"/>
  <anchor x="543" y="1210" name="top"/>
  <anchor x="-238" y="1210" name="topleft"/>
  <outline>
    <contour>
      <point x="863" y="0" type="line"/>
      <point x="1241" y="0" type="line"/>
      <point x="1241" y="760" type="line" smooth="yes"/>
      <point x="1241" y="1042"/>
      <point x="1054" y="1210"/>
      <point x="738" y="1210" type="curve" smooth="yes"/>
      <point x="23" y="1210" type="line"/>
      <point x="23" y="918" type="line"/>
      <point x="707" y="918" type="line" smooth="yes"/>
      <point x="812" y="918"/>
      <point x="863" y="871"/>
      <point x="863" y="777" type="curve" smooth="yes"/>
    </contour>
  </outline>
</glyph>
<glyph name="A.smcp" format="2">
  <advance width="1223.875"/>
  <anchor x="612" y="0" name="bottom"/>
  <anchor x="1224" y="-407" name="bottom_dd"/>
  <anchor x="1157" y="0" name="ogonek"/>
  <anchor x="1077" y="0" name="right"/>
  <anchor x="168" y="1163" name="tonos"/>
  <anchor x="613" y="1320" name="top"/>
  <anchor x="1224" y="1320" name="top0315"/>
  <anchor x="1224" y="1600" name="top_dd"/>
  <outline>
    <contour>
      <point x="346" y="0" type="line"/>
      <point x="602" y="747" type="line"/>
      <point x="683" y="1165" type="line"/>
      <point x="434" y="1165" type="line"/>
      <point x="-16" y="0" type="line"/>
    </contour>
    <contour>
      <point x="609" y="744" type="line"/>
      <point x="877" y="0" type="line"/>
      <point x="1239" y="0" type="line"/>
      <point x="780" y="1165" type="line"/>
      <point x="527" y="1165" type="line"/>
    </contour>
    <contour>
      <point x="891" y="183" type="line"/>
      <point x="891" y="437" type="line"/>
      <point x="271" y="437" type="line"/>
      <point x="271" y="183" type="line"/>
    </contour>
  </outline>
</glyph>
<glyph name="D.ss06" format="2">
  <advance width="1372.5"/>
  <outline>
    <contour>
      <point x="260" y="0" type="line"/>
      <point x="574" y="0" type="line"/>
      <point x="1027" y="0"/>
      <point x="1310" y="315"/>
      <point x="1310" y="706" type="curve"/>
      <point x="1310" y="749" type="line"/>
      <point x="1310" y="1140"/>
      <point x="1028" y="1456"/>
      <point x="568" y="1456" type="curve"/>
      <point x="254" y="1456" type="line"/>
      <point x="254" y="1153" type="line"/>
      <point x="542" y="1153" type="line"/>
      <point x="846" y="1153"/>
      <point x="935" y="959"/>
      <point x="935" y="750" type="curve"/>
      <point x="935" y="706" type="line" smooth="yes"/>
      <point x="935" y="493"/>
      <point x="844" y="302"/>
      <point x="547" y="302" type="curve"/>
      <point x="262" y="302" type="line"/>
    </contour>
    <contour>
      <point x="476" y="0" type="line"/>
      <point x="476" y="1456" type="line"/>
      <point x="101" y="1456" type="line"/>
      <point x="101" y="0" type="line"/>
    </contour>
  </outline>
</glyph>
<glyph name="E.smcp" format="2">
  <advance width="979.325"/>
  <anchor x="570" y="8" name="bottom"/>
  <anchor x="979" y="-407" name="bottom_dd"/>
  <anchor x="790" y="0" name="ogonek"/>
  <anchor x="-15" y="1166" name="tonos"/>
  <anchor x="564" y="1320" name="top"/>
  <anchor x="979" y="1320" name="top0315"/>
  <anchor x="979" y="1600" name="top_dd"/>
  <outline>
    <contour>
      <point x="964" y="0" type="line"/>
      <point x="964" y="289" type="line"/>
      <point x="298" y="289" type="line"/>
      <point x="298" y="0" type="line"/>
    </contour>
    <contour>
      <point x="435" y="0" type="line"/>
      <point x="435" y="1165" type="line"/>
      <point x="74" y="1165" type="line"/>
      <point x="74" y="0" type="line"/>
    </contour>
    <contour>
      <point x="880" y="456" type="line"/>
      <point x="880" y="747" type="line"/>
      <point x="298" y="747" type="line"/>
      <point x="298" y="456" type="line"/>
    </contour>
    <contour>
      <point x="970" y="875" type="line"/>
      <point x="970" y="1165" type="line"/>
      <point x="298" y="1165" type="line"/>
      <point x="298" y="875" type="line"/>
    </contour>
  </outline>
</glyph>
<glyph name="F.smcp" format="2">
  <advance width="957.875"/>
  <anchor x="395" y="10" name="bottom"/>
  <anchor x="958" y="-407" name="bottom_dd"/>
  <anchor x="281" y="198" name="cross"/>
  <anchor x="515" y="1320" name="top"/>
  <anchor x="958" y="1320" name="top0315"/>
  <anchor x="958" y="1600" name="top_dd"/>
  <outline>
    <contour>
      <point x="435" y="0" type="line"/>
      <point x="435" y="1165" type="line"/>
      <point x="74" y="1165" type="line"/>
      <point x="74" y="0" type="line"/>
    </contour>
    <contour>
      <point x="902" y="423" type="line"/>
      <point x="902" y="713" type="line"/>
      <point x="329" y="713" type="line"/>
      <point x="329" y="423" type="line"/>
    </contour>
    <contour>
      <point x="938" y="875" type="line"/>
      <point x="938" y="1165" type="line"/>
      <point x="329" y="1165" type="line"/>
      <point x="329" y="875" type="line"/>
    </contour>
  </outline>
</glyph>
<glyph name="Germandbls.smcp" format="2">
  <advance width="1152.8"/>
  <outline>
    <contour>
      <point x="423" y="0" type="line"/>
      <point x="423" y="738" type="line"/>
      <point x="74" y="738" type="line"/>
      <point x="74" y="0" type="line"/>
    </contour>
    <contour>
      <point x="74" y="736" type="curve"/>
      <point x="423" y="736" type="line"/>
      <point x="423" y="863"/>
      <point x="483" y="901"/>
      <point x="523" y="901" type="curve" smooth="yes"/>
      <point x="563" y="901"/>
      <point x="600" y="881"/>
      <point x="632" y="846" type="curve"/>
      <point x="501" y="679" type="line"/>
      <point x="501" y="546" type="line"/>
      <point x="699" y="535" type="line"/>
      <point x="1014" y="905" type="line"/>
      <point x="880" y="1089"/>
      <point x="731" y="1180"/>
      <point x="529" y="1180" type="curve" smooth="yes"/>
      <point x="237" y="1180"/>
      <point x="74" y="1030"/>
    </contour>
    <contour>
      <point x="579" y="302" type="curve"/>
      <point x="476" y="43" type="line"/>
      <point x="531" y="10"/>
      <point x="608" y="-21"/>
      <point x="729" y="-21" type="curve" smooth="yes"/>
      <point x="929" y="-21"/>
      <point x="1112" y="99"/>
      <point x="1112" y="353" type="curve" smooth="yes"/>
      <point x="1112" y="578"/>
      <point x="922" y="699"/>
      <point x="606" y="699" type="curve"/>
      <point x="501" y="673" type="line"/>
      <point x="501" y="467" type="line"/>
      <point x="583" y="467" type="line" smooth="yes"/>
      <point x="694" y="467"/>
      <point x="763" y="441"/>
      <point x="763" y="354" type="curve" smooth="yes"/>
      <point x="763" y="292"/>
      <point x="728" y="257"/>
      <point x="675" y="257" type="curve" smooth="yes"/>
      <point x="633" y="257"/>
      <point x="595" y="287"/>
    </contour>
  </outline>
</glyph>
<glyph name="H.smcp" format="2">
  <advance width="1230.85"/>
  <anchor x="609" y="10" name="bottom"/>
  <anchor x="1231" y="-407" name="bottom_dd"/>
  <anchor x="1157" y="0" name="right"/>
  <anchor x="-44" y="1157" name="tonos"/>
  <anchor x="609" y="1320" name="top"/>
  <anchor x="1231" y="1320" name="top0315"/>
  <anchor x="1231" y="1600" name="top_dd"/>
  <outline>
    <contour>
      <point x="928" y="424" type="line"/>
      <point x="928" y="714" type="line"/>
      <point x="304" y="714" type="line"/>
      <point x="304" y="424" type="line"/>
    </contour>
    <contour>
      <point x="435" y="0" type="line"/>
      <point x="435" y="1165" type="line"/>
      <point x="74" y="1165" type="line"/>
      <point x="74" y="0" type="line"/>
    </contour>
    <contour>
      <point x="1157" y="0" type="line"/>
      <point x="1157" y="1165" type="line"/>
      <point x="798" y="1165" type="line"/>
      <point x="798" y="0" type="line"/>
    </contour>
  </outline>
</glyph>
<glyph name="K.alt" format="2">
  <advance width="1327.925"/>
  <anchor x="284" y="1209" name="cross"/>
  <anchor x="1271" y="3" name="right"/>
  <outline>
    <contour>
      <point x="476" y="0" type="line"/>
      <point x="476" y="1456" type="line"/>
      <point x="101" y="1456" type="line"/>
      <point x="101" y="0" type="line"/>
    </contour>
    <contour>
      <point x="797" y="555" type="line"/>
      <point x="1309" y="1456" type="line"/>
      <point x="855" y="1456" type="line"/>
      <point x="604" y="914" type="line"/>
      <point x="366" y="914" type="line"/>
      <point x="412" y="555" type="line"/>
    </contour>
    <contour>
      <point x="604" y="625" type="line"/>
      <point x="916" y="0" type="line"/>
      <point x="1359" y="0" type="line"/>
      <point x="878" y="883" type="line"/>
    </contour>
  </outline>
</glyph>
<glyph name="K.alt2" format="2">
  <advance width="1320.05"/>
  <outline>
    <contour>
      <point x="476" y="0" type="line"/>
      <point x="476" y="1456" type="line"/>
      <point x="101" y="1456" type="line"/>
      <point x="101" y="0" type="line"/>
    </contour>
    <contour>
      <point x="762" y="637" type="line"/>
      <point x="1308" y="1456" type="line"/>
      <point x="846" y="1456" type="line"/>
      <point x="468" y="821" type="line"/>
      <point x="367" y="821" type="line"/>
      <point x="377" y="637" type="line"/>
    </contour>
    <contour>
      <point x="419" y="693" type="line"/>
      <point x="864" y="0" type="line"/>
      <point x="1333" y="0" type="line"/>
      <point x="782" y="799" type="line"/>
    </contour>
  </outline>
</glyph>
<glyph name="S.smcp" format="2">
  <advance width="1125.425"/>
  <anchor x="581" y="0" name="bottom"/>
  <anchor x="1125" y="-407" name="bottom_dd"/>
  <anchor x="590" y="1320" name="top"/>
  <anchor x="1125" y="1320" name="top0315"/>
  <anchor x="1125" y="1600" name="top_dd"/>
  <outline>
    <contour>
      <point x="710" y="381"/>
      <point x="710" y="323" type="curve"/>
      <point x="710" y="302"/>
      <point x="700" y="242"/>
      <point x="600" y="242" type="curve" smooth="yes"/>
      <point x="452" y="242"/>
      <point x="414" y="285"/>
      <point x="414" y="387" type="curve"/>
      <point x="53" y="387" type="line"/>
      <point x="53" y="93"/>
      <point x="318" y="-16"/>
      <point x="575" y="-16" type="curve" smooth="yes"/>
      <point x="862" y="-16"/>
      <point x="1046" y="110"/>
      <point x="1046" y="337" type="curve"/>
      <point x="1046" y="570"/>
      <point x="904" y="671"/>
      <point x="592" y="735" type="curve" smooth="yes"/>
      <point x="470" y="765"/>
      <point x="429" y="789"/>
      <point x="429" y="839" type="curve"/>
      <point x="429" y="866"/>
      <point x="463" y="922"/>
      <point x="551" y="922" type="curve" smooth="yes"/>
      <point x="637" y="922"/>
      <point x="692" y="864"/>
      <point x="692" y="812" type="curve"/>
      <point x="1053" y="812" type="line"/>
      <point x="1053" y="1063"/>
      <point x="835" y="1181"/>
      <point x="549" y="1181" type="curve" smooth="yes"/>
      <point x="290" y="1181"/>
      <point x="93" y="1036"/>
      <point x="93" y="821" type="curve"/>
      <point x="93" y="598"/>
      <point x="209" y="519"/>
      <point x="525" y="446" type="curve" smooth="yes"/>
      <point x="663" y="415"/>
    </contour>
  </outline>
</glyph>
<glyph name="T.smcp" format="2">
  <advance width="1134.725"/>
  <anchor x="557" y="15" name="bottom"/>
  <anchor x="1135" y="-407" name="bottom_dd"/>
  <anchor x="514" y="589" name="cross"/>
  <anchor x="694" y="0" name="right"/>
  <anchor x="558" y="1320" name="top"/>
  <anchor x="1135" y="1320" name="top0315"/>
  <anchor x="1135" y="1600" name="top_dd"/>
  <outline>
    <contour>
      <point x="742" y="0" type="line"/>
      <point x="742" y="1165" type="line"/>
      <point x="379" y="1165" type="line"/>
      <point x="379" y="0" type="line"/>
    </contour>
    <contour>
      <point x="1106" y="875" type="line"/>
      <point x="1106" y="1165" type="line"/>
      <point x="27" y="1165" type="line"/>
      <point x="27" y="875" type="line"/>
    </contour>
  </outline>
</glyph>
<glyph name="Thorn.smcp" format="2">
  <advance width="1063.175"/>
  <anchor x="462" y="10" name="bottom"/>
  <anchor x="1063" y="-407" name="bottom_dd"/>
  <anchor x="529" y="1320" name="top"/>
  <anchor x="1063" y="1320" name="top0315"/>
  <anchor x="1063" y="1600" name="top_dd"/>
  <outline>
    <contour>
      <point x="74" y="1165" type="line"/>
      <point x="74" y="0" type="line"/>
      <point x="435" y="0" type="line"/>
      <point x="435" y="1165" type="line"/>
    </contour>
    <contour>
      <point x="291" y="499" type="line"/>
      <point x="291" y="209" type="line"/>
      <point x="528" y="209" type="line" smooth="yes"/>
      <point x="837" y="209"/>
      <point x="1033" y="383"/>
      <point x="1033" y="624" type="curve" smooth="yes"/>
      <point x="1033" y="856"/>
      <point x="837" y="1028"/>
      <point x="528" y="1028" type="curve" smooth="yes"/>
      <point x="291" y="1028" type="line"/>
      <point x="291" y="738" type="line"/>
      <point x="528" y="738" type="line" smooth="yes"/>
      <point x="625" y="738"/>
      <point x="674" y="685"/>
      <point x="674" y="622" type="curve" smooth="yes"/>
      <point x="674" y="553"/>
      <point x="625" y="499"/>
      <point x="528" y="499" type="curve" smooth="yes"/>
    </contour>
  </outline>
</glyph>
<glyph name="U.smcp" format="2">
  <advance width="1179.65"/>
  <anchor x="582" y="0" name="bottom"/>
  <anchor x="1180" y="-407" name="bottom_dd"/>
  <anchor x="906" y="75" name="ogonek"/>
  <anchor x="720" y="0" name="right"/>
  <anchor x="581" y="1320" name="top"/>
  <anchor x="1180" y="1320" name="top0315"/>
  <anchor x="1180" y="1600" name="top_dd"/>
  <outline>
    <contour>
      <point x="1099" y="1165" type="line"/>
      <point x="737" y="1165" type="line"/>
      <point x="737" y="426" type="line" smooth="yes"/>
      <point x="737" y="315"/>
      <point x="694" y="273"/>
      <point x="590" y="273" type="curve" smooth="yes"/>
      <point x="488" y="273"/>
      <point x="440" y="315"/>
      <point x="440" y="426" type="curve" smooth="yes"/>
      <point x="440" y="1165" type="line"/>
      <point x="78" y="1165" type="line"/>
      <point x="78" y="426" type="line"/>
      <point x="78" y="144"/>
      <point x="281" y="-16"/>
      <point x="590" y="-16" type="curve" smooth="yes"/>
      <point x="909" y="-16"/>
      <point x="1099" y="144"/>
      <point x="1099" y="426" type="curve"/>
    </contour>
  </outline>
</glyph>
<glyph name="Y.smcp" format="2">
  <advance width="1125.4"/>
  <anchor x="562" y="50" name="bottom"/>
  <anchor x="1125" y="-407" name="bottom_dd"/>
  <anchor x="555" y="491" name="cross"/>
  <anchor x="-67" y="1163" name="tonos"/>
  <anchor x="545" y="1320" name="top"/>
  <anchor x="1125" y="1320" name="top0315"/>
  <anchor x="1125" y="1600" name="top_dd"/>
  <outline>
    <contour>
      <point x="752" y="1165" type="line"/>
      <point x="493" y="577" type="line"/>
      <point x="531" y="364" type="line"/>
      <point x="718" y="364" type="line"/>
      <point x="1138" y="1165" type="line"/>
    </contour>
    <contour>
      <point x="635" y="569" type="line"/>
      <point x="374" y="1165" type="line"/>
      <point x="-13" y="1165" type="line"/>
      <point x="407" y="364" type="line"/>
      <point x="593" y="364" type="line"/>
    </contour>
    <contour>
      <point x="740" y="0" type="line"/>
      <point x="740" y="557" type="line"/>
      <point x="378" y="557" type="line"/>
      <point x="378" y="0" type="line"/>
    </contour>
  </outline>
</glyph>
<glyph name="Z.smcp" format="2">
  <advance width="1082.575"/>
  <anchor x="556" y="10" name="bottom"/>
  <anchor x="1083" y="-407" name="bottom_dd"/>
  <anchor x="556" y="1320" name="top"/>
  <anchor x="1083" y="1320" name="top0315"/>
  <anchor x="1083" y="1600" name="top_dd"/>
  <outline>
    <contour>
      <point x="1053" y="0" type="line"/>
      <point x="1053" y="289" type="line"/>
      <point x="124" y="289" type="line"/>
      <point x="124" y="0" type="line"/>
    </contour>
    <contour>
      <point x="319" y="0" type="line"/>
      <point x="1055" y="995" type="line"/>
      <point x="1055" y="1165" type="line"/>
      <point x="800" y="1165" type="line"/>
      <point x="50" y="174" type="line"/>
      <point x="50" y="0" type="line"/>
    </contour>
    <contour>
      <point x="945" y="875" type="line"/>
      <point x="945" y="1165" type="line"/>
      <point x="39" y="1165" type="line"/>
      <point x="39" y="875" type="line"/>
    </contour>
  </outline>
</glyph>
<glyph name="ampersand.smcp" format="2">
  <advance width="1397.95"/>
  <outline>
    <contour>
      <point x="260" y="-22"/>
      <point x="559" y="-22" type="curve" smooth="yes"/>
      <point x="687" y="-22"/>
      <point x="825" y="3"/>
      <point x="944" y="64" type="curve" smooth="yes"/>
      <point x="979" y="83"/>
      <point x="1001" y="100"/>
      <point x="1032" y="127" type="curve" smooth="yes"/>
      <point x="1142" y="211"/>
      <point x="1225" y="333"/>
      <point x="1225" y="545" type="curve"/>
      <point x="924" y="545" type="line"/>
      <point x="924" y="379"/>
      <point x="800" y="265"/>
      <point x="556" y="265" type="curve" smooth="yes"/>
      <point x="485" y="265"/>
      <point x="436" y="290"/>
      <point x="436" y="343" type="curve" smooth="yes"/>
      <point x="436" y="367"/>
      <point x="450" y="394"/>
      <point x="491" y="417" type="curve" smooth="yes"/>
      <point x="759" y="576" type="line" smooth="yes"/>
      <point x="873" y="646"/>
      <point x="954" y="737"/>
      <point x="954" y="852" type="curve" smooth="yes"/>
      <point x="954" y="1063"/>
      <point x="797" y="1181"/>
      <point x="553" y="1181" type="curve" smooth="yes"/>
      <point x="304" y="1181"/>
      <point x="171" y="1026"/>
      <point x="171" y="879" type="curve" smooth="yes"/>
      <point x="171" y="734"/>
      <point x="241" y="653"/>
      <point x="359" y="538" type="curve" smooth="yes"/>
      <point x="913" y="0" type="line"/>
      <point x="1297" y="0" type="line"/>
      <point x="586" y="685" type="line" smooth="yes"/>
      <point x="518" y="749"/>
      <point x="468" y="794"/>
      <point x="468" y="838" type="curve" smooth="yes"/>
      <point x="468" y="882"/>
      <point x="499" y="916"/>
      <point x="562" y="916" type="curve" smooth="yes"/>
      <point x="619" y="916"/>
      <point x="653" y="881"/>
      <point x="653" y="855" type="curve" smooth="yes"/>
      <point x="653" y="823"/>
      <point x="647" y="806"/>
      <point x="554" y="750" type="curve" smooth="yes"/>
      <point x="297" y="601" type="line" smooth="yes"/>
      <point x="159" y="519"/>
      <point x="74" y="439"/>
      <point x="74" y="306" type="curve" smooth="yes"/>
      <point x="74" y="114"/>
    </contour>
  </outline>
</glyph>
<glyph name="c.ss06" format="2">
  <advance width="1108.9"/>
  <outline>
    <contour>
      <point x="667" y="271"/>
      <point x="579" y="271" type="curve" smooth="yes"/>
      <point x="448" y="271"/>
      <point x="413" y="383"/>
      <point x="413" y="531" type="curve" smooth="yes"/>
      <point x="413" y="550" type="line" smooth="yes"/>
      <point x="413" y="694"/>
      <point x="449" y="812"/>
      <point x="577" y="812" type="curve"/>
      <point x="674" y="812"/>
      <point x="722" y="741"/>
      <point x="723" y="658" type="curve"/>
      <point x="1061" y="658" type="line"/>
      <point x="1055" y="943"/>
      <point x="861" y="1102"/>
      <point x="585" y="1102" type="curve" smooth="yes"/>
      <point x="246" y="1102"/>
      <point x="52" y="866"/>
      <point x="52" y="550" type="curve" smooth="yes"/>
      <point x="52" y="531" type="line" smooth="yes"/>
      <point x="52" y="215"/>
      <point x="246" y="-20"/>
      <point x="588" y="-20" type="curve"/>
      <point x="852" y="-20"/>
      <point x="1055" y="143"/>
      <point x="1061" y="397" type="curve"/>
      <point x="723" y="397" type="line"/>
      <point x="722" y="317"/>
    </contour>
  </outline>
</glyph>
<glyph name="dollar.smcp" format="2">
  <advance width="1125.425"/>
  <outline>
    <contour>
      <point x="660" y="1077" type="line"/>
      <point x="660" y="1395" type="line"/>
      <point x="492" y="1395" type="line"/>
      <point x="492" y="1077" type="line"/>
    </contour>
    <contour>
      <point x="660" y="-237" type="line"/>
      <point x="660" y="81" type="line"/>
      <point x="492" y="81" type="line"/>
      <point x="492" y="-237" type="line"/>
    </contour>
    <component base="S.smcp"/>
  </outline>
</glyph>
<glyph name="eight.smcp" format="2">
  <advance width="1081"/>
  <outline>
    <contour>
      <point x="1014" y="93"/>
      <point x="1014" y="325" type="curve" smooth="yes"/>
      <point x="1014" y="546"/>
      <point x="811" y="659"/>
      <point x="540" y="659" type="curve" smooth="yes"/>
      <point x="274" y="659"/>
      <point x="67" y="546"/>
      <point x="67" y="325" type="curve" smooth="yes"/>
      <point x="67" y="93"/>
      <point x="271" y="-16"/>
      <point x="542" y="-16" type="curve" smooth="yes"/>
      <point x="818" y="-16"/>
    </contour>
    <contour>
      <point x="654" y="427"/>
      <point x="654" y="365" type="curve" smooth="yes"/>
      <point x="654" y="310"/>
      <point x="609" y="273"/>
      <point x="542" y="273" type="curve" smooth="yes"/>
      <point x="476" y="273"/>
      <point x="429" y="310"/>
      <point x="429" y="365" type="curve" smooth="yes"/>
      <point x="429" y="427"/>
      <point x="476" y="447"/>
      <point x="540" y="447" type="curve" smooth="yes"/>
      <point x="607" y="447"/>
    </contour>
    <contour>
      <point x="987" y="652"/>
      <point x="987" y="846" type="curve" smooth="yes"/>
      <point x="987" y="1070"/>
      <point x="806" y="1182"/>
      <point x="540" y="1182" type="curve" smooth="yes"/>
      <point x="281" y="1182"/>
      <point x="93" y="1070"/>
      <point x="93" y="846" type="curve" smooth="yes"/>
      <point x="93" y="652"/>
      <point x="281" y="537"/>
      <point x="542" y="537" type="curve" smooth="yes"/>
      <point x="806" y="537"/>
    </contour>
    <contour>
      <point x="627" y="871"/>
      <point x="627" y="820" type="curve" smooth="yes"/>
      <point x="627" y="773"/>
      <point x="607" y="737"/>
      <point x="542" y="737" type="curve" smooth="yes"/>
      <point x="479" y="737"/>
      <point x="454" y="773"/>
      <point x="454" y="820" type="curve" smooth="yes"/>
      <point x="454" y="867"/>
      <point x="481" y="892"/>
      <point x="540" y="892" type="curve" smooth="yes"/>
      <point x="605" y="892"/>
    </contour>
  </outline>
</glyph>
<glyph name="four.smcp" format="2">
  <advance width="1081"/>
  <outline>
    <contour>
      <point x="1022" y="222" type="line"/>
      <point x="1022" y="515" type="line"/>
      <point x="389" y="515" type="line"/>
      <point x="536" y="706" type="line"/>
      <point x="841" y="1165" type="line"/>
      <point x="556" y="1165" type="line"/>
      <point x="54" y="464" type="line"/>
      <point x="79" y="222" type="line"/>
    </contour>
    <contour>
      <point x="910" y="0" type="line"/>
      <point x="910" y="1165" type="line"/>
      <point x="550" y="1165" type="line"/>
      <point x="550" y="0" type="line"/>
    </contour>
  </outline>
</glyph>
<glyph name="four.sup" format="2">
  <advance width="770.65"/>
  <outline>
    <contour>
      <point x="708" y="152" type="line"/>
      <point x="708" y="346" type="line"/>
      <point x="275" y="346" type="line"/>
      <point x="382" y="484" type="line"/>
      <point x="583" y="789" type="line"/>
      <point x="396" y="789" type="line"/>
      <point x="53" y="311" type="line"/>
      <point x="69" y="152" type="line"/>
    </contour>
    <contour>
      <point x="634" y="0" type="line"/>
      <point x="634" y="789" type="line"/>
      <point x="395" y="789" type="line"/>
      <point x="395" y="0" type="line"/>
    </contour>
  </outline>
</glyph>
<glyph name="g.alt" format="2">
  <advance width="1083.525"/>
  <outline>
    <contour>
      <point x="21" y="728" type="curve"/>
      <point x="21" y="706" type="line"/>
      <point x="21" y="494"/>
      <point x="216" y="330"/>
      <point x="521" y="330" type="curve" smooth="yes"/>
      <point x="825" y="330"/>
      <point x="1018" y="494"/>
      <point x="1018" y="706" type="curve"/>
      <point x="1018" y="728" type="line"/>
      <point x="1018" y="953"/>
      <point x="825" y="1102"/>
      <point x="519" y="1102" type="curve" smooth="yes"/>
      <point x="216" y="1102"/>
      <point x="21" y="953"/>
    </contour>
    <contour>
      <point x="379" y="706" type="curve"/>
      <point x="379" y="728" type="line"/>
      <point x="379" y="793"/>
      <point x="429" y="836"/>
      <point x="519" y="836" type="curve" smooth="yes"/>
      <point x="611" y="836"/>
      <point x="660" y="793"/>
      <point x="660" y="728" type="curve"/>
      <point x="660" y="706" type="line"/>
      <point x="660" y="644"/>
      <point x="613" y="596"/>
      <point x="521" y="596" type="curve" smooth="yes"/>
      <point x="428" y="596"/>
      <point x="379" y="644"/>
    </contour>
    <contour>
      <point x="460" y="394" type="curve"/>
      <point x="373" y="444" type="line"/>
      <point x="276" y="403"/>
      <point x="134" y="338"/>
      <point x="134" y="201" type="curve" smooth="yes"/>
      <point x="134" y="42"/>
      <point x="270" y="-17"/>
      <point x="432" y="-17" type="curve"/>
      <point x="619" y="-17" type="line"/>
      <point x="688" y="-17"/>
      <point x="705" y="-60"/>
      <point x="705" y="-84" type="curve" smooth="yes"/>
      <point x="705" y="-128"/>
      <point x="654" y="-173"/>
      <point x="494" y="-173" type="curve" smooth="yes"/>
      <point x="365" y="-173"/>
      <point x="304" y="-126"/>
      <point x="304" y="-71" type="curve" smooth="yes"/>
      <point x="304" y="-30"/>
      <point x="332" y="-1"/>
      <point x="365" y="5" type="curve"/>
      <point x="299" y="111" type="line"/>
      <point x="151" y="86"/>
      <point x="-30" y="-2"/>
      <point x="-30" y="-163" type="curve" smooth="yes"/>
      <point x="-30" y="-309"/>
      <point x="154" y="-438"/>
      <point x="494" y="-438" type="curve" smooth="yes"/>
      <point x="856" y="-438"/>
      <point x="1063" y="-235"/>
      <point x="1063" y="-60" type="curve" smooth="yes"/>
      <point x="1063" y="129"/>
      <point x="927" y="249"/>
      <point x="691" y="249" type="curve" smooth="yes"/>
      <point x="500" y="249" type="line" smooth="yes"/>
      <point x="427" y="249"/>
      <point x="373" y="256"/>
      <point x="373" y="314" type="curve" smooth="yes"/>
      <point x="373" y="360"/>
      <point x="424" y="380"/>
    </contour>
    <contour>
      <point x="1065" y="921" type="line"/>
      <point x="1063" y="1082" type="line"/>
      <point x="663" y="1082" type="line"/>
      <point x="672" y="921" type="line"/>
    </contour>
  </outline>
</glyph>
<glyph name="gimelhebrew.001" format="2">
  <advance width="1015.175"/>
  <anchor x="480" y="0" name="bottom"/>
  <anchor x="201" y="603" name="center"/>
  <anchor x="466" y="1210" name="top"/>
  <anchor x="71" y="1210" name="topleft"/>
  <outline>
    <contour>
      <point x="149" y="-16" type="curve" smooth="yes"/>
      <point x="320" y="-16"/>
      <point x="455" y="111"/>
      <point x="489" y="289" type="curve"/>
      <point x="495" y="289" type="line"/>
      <point x="568" y="0" type="line"/>
      <point x="914" y="0" type="line"/>
      <point x="835" y="404" type="line" smooth="yes"/>
      <point x="821" y="469"/>
      <point x="814" y="537"/>
      <point x="814" y="603" type="curve" smooth="yes"/>
      <point x="814" y="1210" type="line"/>
      <point x="182" y="1210" type="line"/>
      <point x="182" y="918" type="line"/>
      <point x="442" y="918" type="line"/>
      <point x="442" y="468" type="line"/>
      <point x="384" y="361"/>
      <point x="298" y="320"/>
      <point x="170" y="320" type="curve" smooth="yes"/>
      <point x="135" y="320"/>
      <point x="97" y="324"/>
      <point x="57" y="330" type="curve"/>
      <point x="57" y="-9" type="line"/>
      <point x="86" y="-13"/>
      <point x="119" y="-16"/>
    </contour>
  </outline>
</glyph>
<glyph name="k.alt" format="2">
  <advance width="1131.725"/>
  <anchor x="587" y="19" name="bottom"/>
  <anchor x="261" y="1300" name="cross"/>
  <anchor x="721" y="1597" name="top"/>
  <anchor x="1132" y="1597" name="top0315"/>
  <outline>
    <contour>
      <point x="451" y="0" type="line"/>
      <point x="451" y="1536" type="line"/>
      <point x="90" y="1536" type="line"/>
      <point x="90" y="0" type="line"/>
    </contour>
    <contour>
      <point x="684" y="411" type="line"/>
      <point x="1113" y="1082" type="line"/>
      <point x="699" y="1082" type="line"/>
      <point x="501" y="695" type="line"/>
      <point x="203" y="695" type="line"/>
      <point x="363" y="411" type="line"/>
    </contour>
    <contour>
      <point x="471" y="484" type="line"/>
      <point x="731" y="0" type="line"/>
      <point x="1142" y="0" type="line"/>
      <point x="751" y="672" type="line"/>
    </contour>
  </outline>
</glyph>
<glyph name="k.alt2" format="2">
  <advance width="1122.775"/>
  <outline>
    <contour>
      <point x="451" y="0" type="line"/>
      <point x="451" y="1560" type="line"/>
      <point x="90" y="1560" type="line"/>
      <point x="90" y="0" type="line"/>
    </contour>
    <contour>
      <point x="720" y="521" type="line"/>
      <point x="1109" y="1082" type="line"/>
      <point x="699" y="1082" type="line"/>
      <point x="450" y="696" type="line"/>
      <point x="203" y="696" type="line"/>
      <point x="242" y="521" type="line"/>
    </contour>
    <contour>
      <point x="354" y="585" type="line"/>
      <point x="731" y="0" type="line"/>
      <point x="1153" y="0" type="line"/>
      <point x="686" y="676" type="line"/>
    </contour>
  </outline>
</glyph>
<glyph name="o.ss06" format="2">
  <advance width="1180.175"/>
  <outline>
    <contour>
      <point x="41" y="550" type="curve"/>
      <point x="41" y="531" type="line"/>
      <point x="41" y="214"/>
      <point x="246" y="-20"/>
      <point x="591" y="-20" type="curve" smooth="yes"/>
      <point x="935" y="-20"/>
      <point x="1139" y="214"/>
      <point x="1139" y="531" type="curve"/>
      <point x="1139" y="550" type="line"/>
      <point x="1139" y="867"/>
      <point x="935" y="1102"/>
      <point x="589" y="1102" type="curve" smooth="yes"/>
      <point x="246" y="1102"/>
      <point x="41" y="867"/>
    </contour>
    <contour>
      <point x="401" y="531" type="curve"/>
      <point x="401" y="550" type="line"/>
      <point x="401" y="693"/>
      <point x="456" y="812"/>
      <point x="589" y="812" type="curve" smooth="yes"/>
      <point x="725" y="812"/>
      <point x="779" y="693"/>
      <point x="779" y="550" type="curve"/>
      <point x="779" y="531" type="line"/>
      <point x="779" y="382"/>
      <point x="724" y="271"/>
      <point x="591" y="271" type="curve" smooth="yes"/>
      <point x="455" y="271"/>
      <point x="401" y="382"/>
    </contour>
  </outline>
</glyph>
<glyph name="one.smcp" format="2">
  <advance width="1081"/>
  <outline>
    <contour>
      <point x="791" y="0" type="line"/>
      <point x="791" y="1158" type="line"/>
      <point x="761" y="1158" type="line"/>
      <point x="147" y="966" type="line"/>
      <point x="147" y="694" type="line"/>
      <point x="432" y="741" type="line"/>
      <point x="432" y="0" type="line"/>
    </contour>
  </outline>
</glyph>
<glyph name="one.sup" format="2">
  <advance width="770.65"/>
  <outline>
    <contour>
      <point x="551" y="0" type="line"/>
      <point x="551" y="785" type="line"/>
      <point x="532" y="785" type="line"/>
      <point x="145" y="661" type="line"/>
      <point x="145" y="480" type="line"/>
      <point x="315" y="510" type="line"/>
      <point x="315" y="0" type="line"/>
    </contour>
  </outline>
</glyph>
<glyph name="seven.smcp" format="2">
  <advance width="1081"/>
  <outline>
    <contour>
      <point x="1006" y="963" type="line"/>
      <point x="1006" y="1165" type="line"/>
      <point x="38" y="1165" type="line"/>
      <point x="38" y="875" type="line"/>
      <point x="628" y="875" type="line"/>
      <point x="159" y="0" type="line"/>
      <point x="539" y="0" type="line"/>
    </contour>
  </outline>
</glyph>
<glyph name="seven.sup" format="2">
  <advance width="770.65"/>
  <outline>
    <contour>
      <point x="700" y="656" type="line"/>
      <point x="700" y="789" type="line"/>
      <point x="46" y="789" type="line"/>
      <point x="46" y="598" type="line"/>
      <point x="450" y="598" type="line"/>
      <point x="130" y="0" type="line"/>
      <point x="381" y="0" type="line"/>
    </contour>
  </outline>
</glyph>
<glyph name="sterling.smcp" format="2">
  <advance width="1235.6"/>
  <outline>
    <contour>
      <point x="149" y="0" type="line"/>
      <point x="1143" y="0" type="line"/>
      <point x="1143" y="290" type="line"/>
      <point x="149" y="290" type="line"/>
    </contour>
    <contour>
      <point x="933" y="458" type="line"/>
      <point x="933" y="659" type="line"/>
      <point x="76" y="659" type="line"/>
      <point x="76" y="458" type="line"/>
    </contour>
    <contour>
      <point x="600" y="537" type="curve" smooth="yes"/>
      <point x="588" y="722" type="line"/>
      <point x="579" y="833"/>
      <point x="613" y="895"/>
      <point x="679" y="895" type="curve" smooth="yes"/>
      <point x="741" y="895"/>
      <point x="775" y="856"/>
      <point x="775" y="749" type="curve"/>
      <point x="1136" y="749" type="line"/>
      <point x="1136" y="1008"/>
      <point x="985" y="1181"/>
      <point x="675" y="1181" type="curve" smooth="yes"/>
      <point x="394" y="1181"/>
      <point x="218" y="1013"/>
      <point x="227" y="722" type="curve" smooth="yes"/>
      <point x="234" y="511" type="line" smooth="yes"/>
      <point x="236" y="408"/>
      <point x="226" y="306"/>
      <point x="159" y="290" type="curve"/>
      <point x="254" y="164" type="line"/>
      <point x="484" y="235"/>
      <point x="613" y="356"/>
    </contour>
  </outline>
</glyph>
<glyph name="three.sup" format="2">
  <advance width="770.65"/>
  <outline>
    <contour>
      <point x="370" y="479" type="curve" smooth="yes"/>
      <point x="278" y="479" type="line"/>
      <point x="278" y="381" type="line"/>
      <point x="408" y="381" type="line"/>
      <point x="560" y="381"/>
      <point x="697" y="440"/>
      <point x="697" y="573" type="curve"/>
      <point x="697" y="722"/>
      <point x="561" y="801"/>
      <point x="364" y="801" type="curve" smooth="yes"/>
      <point x="205" y="801"/>
      <point x="54" y="729"/>
      <point x="54" y="573" type="curve"/>
      <point x="292" y="573" type="line"/>
      <point x="292" y="597"/>
      <point x="330" y="610"/>
      <point x="372" y="610" type="curve" smooth="yes"/>
      <point x="440" y="610"/>
      <point x="459" y="574"/>
      <point x="459" y="552" type="curve"/>
      <point x="459" y="507"/>
      <point x="431" y="479"/>
    </contour>
    <contour>
      <point x="278" y="421" type="line"/>
      <point x="278" y="327" type="line"/>
      <point x="370" y="327" type="line" smooth="yes"/>
      <point x="435" y="327"/>
      <point x="473" y="307"/>
      <point x="473" y="251" type="curve" smooth="yes"/>
      <point x="473" y="218"/>
      <point x="450" y="181"/>
      <point x="381" y="181" type="curve" smooth="yes"/>
      <point x="316" y="181"/>
      <point x="279" y="215"/>
      <point x="279" y="246" type="curve"/>
      <point x="39" y="246" type="line"/>
      <point x="39" y="53"/>
      <point x="216" y="-11"/>
      <point x="363" y="-11" type="curve" smooth="yes"/>
      <point x="560" y="-11"/>
      <point x="712" y="74"/>
      <point x="712" y="223" type="curve" smooth="yes"/>
      <point x="712" y="389"/>
      <point x="570" y="421"/>
      <point x="408" y="421" type="curve" smooth="yes"/>
    </contour>
  </outline>
</glyph>
<glyph name="two.sup" format="2">
  <advance width="770.65"/>
  <outline>
    <contour>
      <point x="701" y="0" type="line"/>
      <point x="701" y="190" type="line"/>
      <point x="383" y="190" type="line"/>
      <point x="450" y="235" type="line" smooth="yes"/>
      <point x="616" y="355"/>
      <point x="684" y="420"/>
      <point x="684" y="544" type="curve" smooth="yes"/>
      <point x="684" y="711"/>
      <point x="567" y="801"/>
      <point x="358" y="801" type="curve" smooth="yes"/>
      <point x="170" y="801"/>
      <point x="49" y="672"/>
      <point x="49" y="517" type="curve"/>
      <point x="288" y="517" type="line"/>
      <point x="288" y="563"/>
      <point x="316" y="610"/>
      <point x="371" y="610" type="curve" smooth="yes"/>
      <point x="422" y="610"/>
      <point x="447" y="586"/>
      <point x="447" y="545" type="curve" smooth="yes"/>
      <point x="447" y="523"/>
      <point x="415" y="459"/>
      <point x="352" y="407" type="curve" smooth="yes"/>
      <point x="67" y="160" type="line"/>
      <point x="67" y="0" type="line"/>
    </contour>
  </outline>
</glyph>
<glyph name="yen.smcp" format="2">
  <advance width="939.8"/>
  <outline>
    <contour>
      <point x="908" y="479" type="line"/>
      <point x="908" y="681" type="line"/>
      <point x="25" y="681" type="line"/>
      <point x="25" y="479" type="line"/>
    </contour>
    <contour>
      <point x="908" y="214" type="line"/>
      <point x="908" y="416" type="line"/>
      <point x="25" y="416" type="line"/>
      <point x="25" y="214" type="line"/>
    </contour>
    <contour>
      <point x="561" y="1165" type="line"/>
      <point x="398" y="576" type="line"/>
      <point x="438" y="364" type="line"/>
      <point x="625" y="364" type="line"/>
      <point x="938" y="1165" type="line"/>
    </contour>
    <contour>
      <point x="543" y="569" type="line"/>
      <point x="378" y="1165" type="line"/>
      <point x="2" y="1165" type="line"/>
      <point x="314" y="364" type="line"/>
      <point x="500" y="364" type="line"/>
    </contour>
    <contour>
      <point x="647" y="0" type="line"/>
      <point x="647" y="557" type="line"/>
      <point x="285" y="557" type="line"/>
      <point x="285" y="0" type="line"/>
    </contour>
  </outline>
</glyph>
<glyph name="zero.smcp" format="2">
  <advance width="1081"/>
  <outline>
    <contour>
      <point x="1015" y="440" type="curve"/>
      <point x="1015" y="717" type="line"/>
      <point x="1015" y="1029"/>
      <point x="814" y="1181"/>
      <point x="540" y="1181" type="curve" smooth="yes"/>
      <point x="262" y="1181"/>
      <point x="66" y="1029"/>
      <point x="66" y="717" type="curve"/>
      <point x="66" y="440" type="line"/>
      <point x="66" y="127"/>
      <point x="264" y="-16"/>
      <point x="542" y="-16" type="curve" smooth="yes"/>
      <point x="816" y="-16"/>
      <point x="1015" y="127"/>
    </contour>
    <contour>
      <point x="655" y="723" type="curve"/>
      <point x="655" y="436" type="line"/>
      <point x="655" y="296"/>
      <point x="607" y="273"/>
      <point x="542" y="273" type="curve" smooth="yes"/>
      <point x="472" y="273"/>
      <point x="427" y="296"/>
      <point x="427" y="436" type="curve" smooth="yes"/>
      <point x="427" y="723" type="line" smooth="yes"/>
      <point x="427" y="856"/>
      <point x="471" y="891"/>
      <point x="540" y="891" type="curve" smooth="yes"/>
      <point x="607" y="891"/>
      <point x="655" y="856"/>
    </contour>
  </outline>
</glyph>
